<svg width="173" height="56" viewBox="0 0 173 56" fill="none" xmlns="http://www.w3.org/2000/svg">
<g clip-path="url(#clip0_1_474)">
<path d="M163.333 0H9.33333C4.17868 0 0 4.17868 0 9.33333V46.6667C0 51.8213 4.17868 56 9.33333 56H163.333C168.488 56 172.667 51.8213 172.667 46.6667V9.33333C172.667 4.17868 168.488 0 163.333 0Z" fill="#212121"/>
<path d="M34.9754 28.0782C34.9911 26.8507 35.317 25.6472 35.9229 24.5795C36.5287 23.5119 37.3947 22.6149 38.4404 21.9719C37.7762 21.0232 36.9 20.2425 35.8813 19.6916C34.8626 19.1408 33.7296 18.835 32.5721 18.7985C30.1011 18.5384 27.7071 20.2755 26.4482 20.2755C25.1649 20.2755 23.2282 18.823 21.1399 18.8662C19.7902 18.91 18.4749 19.3027 17.3222 20.0061C16.1695 20.7094 15.2186 21.6994 14.5622 22.8795C11.7179 27.8029 13.8389 35.0409 16.5642 39.0215C17.9281 40.971 19.5206 43.1492 21.6054 43.071C23.6459 42.987 24.4077 41.7714 26.8706 41.7714C29.3089 41.7714 30.0241 43.071 32.1521 43.022C34.3407 42.987 35.7197 41.0644 37.0357 39.0974C38.0153 37.7079 38.7689 36.1723 39.2687 34.5474C37.9971 34.0096 36.9119 33.1093 36.1484 31.9589C35.385 30.8085 34.977 29.4589 34.9754 28.0782ZM30.9562 16.1794C32.1496 14.7466 32.7376 12.9052 32.5954 11.046C30.7722 11.2377 29.0881 12.1091 27.8786 13.4867C27.287 14.1599 26.834 14.943 26.5453 15.7914C26.2566 16.6398 26.138 17.5368 26.1962 18.431C27.1083 18.4403 28.0106 18.2424 28.8351 17.8524C29.6596 17.4624 30.3849 16.8903 30.9562 16.1794ZM60.7646 38.1372H53.8031L52.1312 43.0733H49.1819L55.7759 24.8092H58.8396L65.4336 43.0733H62.4352L60.7646 38.1372ZM54.5229 35.8587H60.0413L57.3229 27.8472H57.2459L54.5229 35.8587ZM79.6763 36.4164C79.6763 40.5534 77.4619 43.2122 74.1194 43.2122C73.2728 43.2563 72.4308 43.0612 71.6899 42.6492C70.949 42.2372 70.3391 41.6249 69.9299 40.8824H69.8669V47.4787H67.1334V29.757H69.7794V31.9714H69.8296C70.2577 31.2327 70.878 30.6238 71.6245 30.2094C72.3711 29.7951 73.2159 29.5908 74.0693 29.6182C77.4491 29.6182 79.6763 32.2899 79.6763 36.4164ZM76.8669 36.4164C76.8669 33.7202 75.4739 31.948 73.3483 31.948C71.2599 31.948 69.8553 33.7564 69.8553 36.4164C69.8553 39.0997 71.2599 40.8964 73.3483 40.8964C75.4739 40.8964 76.8669 39.1359 76.8669 36.4164ZM94.3284 36.4164C94.3284 40.5545 92.1141 43.2134 88.7716 43.2134C87.9249 43.2576 87.0829 43.0626 86.342 42.6506C85.6011 42.2385 84.9911 41.6261 84.5821 40.8835H84.5179V47.4787H81.7856V29.757H84.4304V31.9725H84.4806C84.9086 31.2334 85.529 30.6241 86.2758 30.2095C87.0225 29.7949 87.8677 29.5906 88.7214 29.6182C92.1012 29.6182 94.3284 32.2899 94.3284 36.4164ZM91.5191 36.4164C91.5191 33.7214 90.1261 31.948 88.0004 31.948C85.9121 31.948 84.5074 33.7575 84.5074 36.4164C84.5074 39.0997 85.9121 40.8964 88.0004 40.8964C90.1261 40.8964 91.5191 39.137 91.5191 36.4164ZM104.02 37.9844C104.223 39.7962 105.982 40.985 108.387 40.985C110.69 40.985 112.348 39.795 112.348 38.1617C112.348 36.7454 111.348 35.896 108.981 35.315L106.613 34.7434C103.26 33.9337 101.703 32.3657 101.703 29.82C101.703 26.67 104.449 24.5047 108.349 24.5047C112.209 24.5047 114.854 26.6689 114.943 29.82H112.184C112.019 27.9977 110.512 26.8975 108.311 26.8975C106.108 26.8975 104.601 28.0105 104.601 29.631C104.601 30.9225 105.563 31.682 107.918 32.263L109.93 32.7577C113.678 33.6444 115.235 35.1494 115.235 37.821C115.235 41.237 112.513 43.3778 108.184 43.3778C104.133 43.3778 101.398 41.2884 101.222 37.9844H104.02ZM121.13 26.6059V29.757H123.662V31.9212H121.13V39.263C121.13 40.4029 121.638 40.9349 122.751 40.9349C123.051 40.929 123.352 40.908 123.649 40.8707V43.0232C123.149 43.1165 122.64 43.1585 122.131 43.1492C119.435 43.1492 118.384 42.1365 118.384 39.5547V31.92H116.447V29.7559H118.384V26.6047L121.13 26.6059ZM125.13 36.4164C125.13 32.2257 127.597 29.5937 131.445 29.5937C135.305 29.5937 137.762 32.2257 137.762 36.4164C137.762 40.6164 135.319 43.2379 131.445 43.2379C127.573 43.2379 125.13 40.6175 125.13 36.4164ZM134.976 36.4164C134.976 33.5417 133.66 31.8454 131.445 31.8454C129.23 31.8454 127.914 33.5545 127.914 36.4164C127.914 39.3015 129.23 40.985 131.445 40.985C133.66 40.985 134.976 39.3015 134.976 36.4164ZM140.014 29.757H142.62V32.0239H142.683C142.861 31.3164 143.276 30.6914 143.859 30.2534C144.442 29.8155 145.158 29.5912 145.887 29.6182C146.202 29.6182 146.516 29.6509 146.824 29.7197V32.277C146.426 32.1554 146.011 32.0994 145.595 32.1114C144.997 32.0878 144.407 32.2595 143.915 32.6007C143.423 32.9419 143.055 33.4339 142.868 34.0025C142.743 34.38 142.702 34.7801 142.747 35.175V43.0733H140.014V29.757ZM159.426 39.1627C159.059 41.58 156.704 43.2379 153.693 43.2379C149.819 43.2379 147.414 40.6432 147.414 36.4794C147.414 32.3027 149.831 29.5937 153.578 29.5937C157.262 29.5937 159.579 32.1242 159.579 36.162V37.0977H150.173V37.2634C150.13 37.7534 150.192 38.247 150.354 38.7114C150.516 39.1757 150.776 39.6003 151.114 39.957C151.453 40.3137 151.864 40.5942 152.319 40.7801C152.775 40.966 153.264 41.0529 153.756 41.0352C154.402 41.0958 155.05 40.9463 155.604 40.609C156.158 40.2716 156.589 39.7643 156.831 39.1627H159.426ZM150.187 35.1879H156.844C156.869 34.7472 156.802 34.3061 156.648 33.8925C156.494 33.4789 156.256 33.1015 155.949 32.7841C155.643 32.4668 155.274 32.2162 154.866 32.0483C154.457 31.8803 154.019 31.7985 153.578 31.808C153.133 31.8057 152.691 31.8915 152.28 32.0602C151.868 32.229 151.493 32.4775 151.178 32.7915C150.863 33.106 150.613 33.4796 150.443 33.8908C150.273 34.3021 150.186 34.7429 150.187 35.1879ZM54.1799 11.0624C54.753 11.0212 55.3281 11.1077 55.8637 11.3158C56.3993 11.5238 56.8821 11.8481 57.2772 12.2653C57.6723 12.6825 57.9698 13.1821 58.1484 13.7283C58.327 14.2744 58.3822 14.8533 58.3099 15.4234C58.3099 18.2269 56.7932 19.838 54.1799 19.838H51.0101V11.0624H54.1799ZM52.3716 18.5967H54.0259C54.4354 18.6214 54.8453 18.5544 55.2256 18.4007C55.606 18.2469 55.9472 18.0103 56.2245 17.7079C56.5018 17.4056 56.7082 17.0452 56.8286 16.653C56.949 16.2608 56.9803 15.8467 56.9204 15.4409C56.9757 15.0367 56.941 14.6254 56.8187 14.2363C56.6965 13.8471 56.4897 13.4898 56.2132 13.1899C55.9368 12.89 55.5974 12.655 55.2195 12.5016C54.8415 12.3482 54.4344 12.2802 54.0271 12.3025H52.3716V18.5967ZM59.8476 16.5235C59.8064 16.0885 59.8564 15.6497 59.9946 15.2352C60.1328 14.8207 60.3561 14.4396 60.6501 14.1164C60.9442 13.7932 61.3024 13.535 61.7021 13.3583C62.1017 13.1816 62.5338 13.0903 62.9707 13.0903C63.4077 13.0903 63.8398 13.1816 64.2394 13.3583C64.639 13.535 64.9973 13.7932 65.2914 14.1164C65.5854 14.4396 65.8087 14.8207 65.9469 15.2352C66.0851 15.6497 66.1352 16.0885 66.0939 16.5235C66.1387 16.9605 66.0912 17.402 65.9546 17.8195C65.8181 18.237 65.5954 18.6212 65.301 18.9472C65.0067 19.2732 64.6472 19.5339 64.2458 19.7123C63.8444 19.8907 63.41 19.9829 62.9707 19.9829C62.5315 19.9829 62.0971 19.8907 61.6957 19.7123C61.2943 19.5339 60.9348 19.2732 60.6405 18.9472C60.3461 18.6212 60.1234 18.237 59.9869 17.8195C59.8503 17.402 59.8028 16.9605 59.8476 16.5235ZM64.7499 16.5235C64.7499 15.0885 64.1048 14.2485 62.9731 14.2485C61.8368 14.2485 61.1974 15.0885 61.1974 16.5235C61.1974 17.9702 61.8368 18.8032 62.9731 18.8032C64.1048 18.8032 64.7499 17.9644 64.7499 16.5235ZM74.3983 19.838H73.0414L71.6729 14.9602H71.5691L70.2064 19.8369H68.8636L67.0378 13.2149H68.3631L69.5496 18.2689H69.6476L71.0091 13.2149H72.2632L73.6248 18.2689H73.7286L74.9081 13.2149H76.2148L74.3983 19.838ZM77.7513 13.2149H79.0101V14.2672H79.1081C79.2739 13.8895 79.5534 13.5729 79.9077 13.3614C80.2619 13.15 80.6732 13.0543 81.0844 13.0877C81.4066 13.0632 81.7302 13.1115 82.0311 13.2291C82.332 13.3467 82.6027 13.5306 82.8229 13.767C83.0431 14.0035 83.2072 14.2865 83.3031 14.595C83.399 14.9036 83.4243 15.2297 83.3769 15.5494V19.838H82.0703V15.8784C82.0703 14.8144 81.6071 14.2847 80.6399 14.2847C80.4212 14.2747 80.2029 14.3121 79.9999 14.3944C79.797 14.4766 79.6142 14.6017 79.464 14.7612C79.3139 14.9206 79.2 15.1105 79.1301 15.3181C79.0602 15.5256 79.036 15.7458 79.0591 15.9635V19.8369H77.7524L77.7513 13.2149ZM85.4583 10.6295H86.7649V19.838H85.4583V10.6284V10.6295ZM88.5849 16.5235C88.5321 15.9781 88.6231 15.4283 88.8489 14.929C89.0747 14.4296 89.4275 13.9982 89.8719 13.6776C90.3164 13.3571 90.8371 13.1586 91.3822 13.102C91.9273 13.0453 92.4777 13.1325 92.9786 13.3549C93.5814 13.6212 94.0851 14.0707 94.4181 14.6395C94.751 15.2082 94.8964 15.8674 94.8336 16.5235C94.8775 16.9601 94.8294 17.401 94.6924 17.8179C94.5554 18.2347 94.3325 18.6182 94.0382 18.9436C93.7439 19.269 93.3846 19.5291 92.9836 19.7071C92.5825 19.8851 92.1486 19.9771 91.7098 19.9771C91.2711 19.9771 90.8372 19.8851 90.4361 19.7071C90.0351 19.5291 89.6758 19.269 89.3815 18.9436C89.0871 18.6182 88.8643 18.2347 88.7273 17.8179C88.5903 17.401 88.541 16.9601 88.5849 16.5235ZM93.4873 16.5235C93.4873 15.0885 92.8433 14.2485 91.7104 14.2485C90.5753 14.2485 89.9359 15.0885 89.9359 16.5235C89.9359 17.9702 90.5753 18.8032 91.7116 18.8032C92.8433 18.8032 93.4873 17.9644 93.4873 16.5235ZM96.2033 17.9644C96.2033 16.7732 97.0923 16.086 98.6673 15.988L100.462 15.8842V15.3125C100.462 14.6125 99.9996 14.2182 99.1059 14.2182C98.3756 14.2182 97.8704 14.4865 97.7258 14.9544H96.4599C96.5941 13.8169 97.6639 13.0877 99.1666 13.0877C100.827 13.0877 101.762 13.9137 101.762 15.3125V19.838H100.505V18.907H100.401C100.191 19.2408 99.8962 19.5129 99.5468 19.6955C99.1973 19.8781 98.8056 19.9647 98.4118 19.9465C98.1337 19.9754 97.8528 19.9457 97.587 19.8593C97.3211 19.7729 97.0764 19.6318 96.8684 19.4451C96.6604 19.2583 96.4939 19.0301 96.3796 18.7751C96.2652 18.52 96.2044 18.2439 96.2033 17.9644ZM100.462 17.3985V16.8455L98.8446 16.9482C97.9323 17.01 97.5181 17.3204 97.5181 17.9049C97.5181 18.4999 98.0361 18.8464 98.7466 18.8464C98.9549 18.8677 99.1653 18.8468 99.3654 18.7851C99.5654 18.7233 99.751 18.6219 99.911 18.4869C100.071 18.3519 100.202 18.1861 100.297 17.9993C100.391 17.8125 100.447 17.6074 100.462 17.3985ZM103.483 16.5235C103.483 14.4305 104.558 13.1052 106.232 13.1052C106.646 13.0863 107.056 13.1856 107.416 13.3913C107.775 13.5971 108.069 13.9009 108.262 14.2672H108.36V10.6284H109.667V19.8369H108.415V18.7904H108.311C108.103 19.1542 107.799 19.4541 107.432 19.6577C107.066 19.8613 106.651 19.9607 106.232 19.9454C104.547 19.9454 103.482 18.62 103.482 16.5224L103.483 16.5235ZM104.832 16.5235C104.832 17.9282 105.495 18.774 106.602 18.774C107.703 18.774 108.384 17.9165 108.384 16.5294C108.384 15.1492 107.696 14.2789 106.602 14.2789C105.502 14.2789 104.832 15.1305 104.832 16.5235ZM115.078 16.5235C115.035 16.0882 115.085 15.6488 115.223 15.2337C115.36 14.8186 115.584 14.4369 115.878 14.1131C116.172 13.7894 116.531 13.5309 116.931 13.3541C117.331 13.1772 117.763 13.0861 118.201 13.0865C118.638 13.0867 119.07 13.1781 119.47 13.3551C119.87 13.5321 120.228 13.7907 120.522 14.1143C120.817 14.4379 121.04 14.8194 121.178 15.2342C121.316 15.6491 121.366 16.0883 121.324 16.5235C121.366 16.9591 121.316 17.3987 121.179 17.8142C121.041 18.2296 120.818 18.6118 120.525 18.9362C120.082 19.4249 119.496 19.7616 118.85 19.8983C118.205 20.0349 117.533 19.9647 116.929 19.6976C116.326 19.4304 115.822 18.9799 115.49 18.4101C115.157 17.8403 115.014 17.1802 115.078 16.5235ZM119.979 16.5235C119.979 15.0885 119.335 14.2485 118.203 14.2485C117.067 14.2485 116.427 15.0885 116.427 16.5235C116.427 17.9702 117.067 18.8032 118.203 18.8032C119.335 18.8032 119.979 17.9644 119.979 16.5235ZM123.074 13.2149H124.333V14.2672H124.43C124.595 13.8894 124.875 13.5727 125.229 13.3612C125.583 13.1498 125.995 13.0542 126.406 13.0877C126.728 13.0634 127.052 13.1119 127.352 13.2296C127.653 13.3473 127.924 13.5311 128.144 13.7675C128.364 14.0039 128.528 14.2868 128.624 14.5952C128.72 14.9037 128.746 15.2298 128.698 15.5494V19.838H127.392V15.8784C127.392 14.8144 126.93 14.2847 125.963 14.2847C125.744 14.2745 125.525 14.3118 125.322 14.394C125.119 14.4761 124.936 14.6013 124.786 14.7607C124.636 14.9202 124.522 15.1102 124.452 15.3179C124.383 15.5255 124.358 15.7457 124.382 15.9635V19.8369H123.074V13.2149ZM136.085 11.5664V13.2452H137.52V14.3465H136.085V17.752C136.085 18.445 136.37 18.7495 137.021 18.7495C137.187 18.7495 137.354 18.7379 137.52 18.7192V19.8077C137.285 19.8496 137.047 19.8718 136.808 19.8742C135.354 19.8742 134.776 19.3632 134.776 18.0857V14.3465H133.724V13.2452H134.776V11.5652L136.085 11.5664ZM139.307 10.6295H140.603V14.2789H140.706C140.88 13.8974 141.167 13.5789 141.528 13.3665C141.889 13.1542 142.307 13.0585 142.725 13.0924C143.046 13.0751 143.366 13.1288 143.664 13.2495C143.961 13.3703 144.228 13.5552 144.446 13.7911C144.664 14.027 144.827 14.308 144.924 14.6141C145.021 14.9203 145.049 15.244 145.006 15.5622V19.838H143.698V15.8842C143.698 14.826 143.206 14.2905 142.282 14.2905C141.943 14.2632 141.605 14.3479 141.319 14.5314C141.034 14.715 140.816 14.9874 140.7 15.3067C140.624 15.519 140.595 15.7454 140.615 15.9694V19.838H139.307V10.6284V10.6295ZM152.629 18.0495C152.452 18.6551 152.067 19.179 151.542 19.5293C151.018 19.8795 150.386 20.0339 149.759 19.9652C149.323 19.9763 148.889 19.8925 148.489 19.7196C148.088 19.5466 147.73 19.2886 147.439 18.9634C147.148 18.6382 146.931 18.2537 146.804 17.8364C146.676 17.4192 146.641 16.9791 146.7 16.5469C146.612 15.8933 146.738 15.2288 147.06 14.6529C147.381 14.077 147.88 13.6208 148.483 13.3525C148.883 13.174 149.316 13.0842 149.753 13.0877C151.597 13.0877 152.708 14.3465 152.708 16.4255V16.8817H148.031V16.9552C148.012 17.1982 148.043 17.4427 148.122 17.6732C148.202 17.9037 148.328 18.1153 148.493 18.2945C148.66 18.4725 148.862 18.614 149.086 18.71C149.31 18.806 149.551 18.8544 149.795 18.8522C150.108 18.89 150.425 18.8338 150.706 18.6909C150.986 18.5479 151.218 18.3247 151.371 18.0495H152.629ZM148.031 15.9145H151.376C151.403 15.5793 151.322 15.2443 151.146 14.9579C150.97 14.6714 150.707 14.4484 150.396 14.3209C150.19 14.2356 149.969 14.1942 149.746 14.1995C149.406 14.1947 149.072 14.2929 148.788 14.4813C148.504 14.6698 148.284 14.9396 148.156 15.2554C148.071 15.465 148.029 15.6895 148.031 15.9157V15.9145Z" fill="white"/>
</g>
<defs>
<clipPath id="clip0_1_474">
<rect width="172.667" height="56" fill="white"/>
</clipPath>
</defs>
</svg>
