<svg width="24" height="22" viewBox="0 0 24 22" fill="none" xmlns="http://www.w3.org/2000/svg">
<path d="M11.9567 1.98343L12.6246 0.785499C13.0369 0.0367987 13.9564 -0.215627 14.6779 0.212209C15.3994 0.640039 15.6427 1.5941 15.2304 2.34281L8.79436 13.9028H13.4492C14.9583 13.9028 15.8035 15.7425 15.1479 17.0175H1.50077C0.667926 17.0175 0 16.3244 0 15.4602C0 14.5959 0.667926 13.9028 1.50077 13.9028H5.32692L10.225 5.09377L8.69541 2.33853C8.28311 1.58983 8.52637 0.644319 9.24789 0.207929C9.96942 -0.219905 10.8806 0.0325186 11.3012 0.781219L11.9567 1.98343ZM6.16801 18.6218L4.72496 21.2188C4.31266 21.9675 3.39323 22.2199 2.67171 21.7921C1.95018 21.3642 1.70692 20.4102 2.11922 19.6615L3.1912 17.7362C4.40337 17.3469 5.38876 17.6464 6.16801 18.6218ZM18.5947 13.9114H22.4992C23.3321 13.9114 24 14.6045 24 15.4687C24 16.3329 23.3321 17.026 22.4992 17.026H20.3305L21.7942 19.6615C22.2065 20.4102 21.9632 21.3557 21.2417 21.7921C20.5202 22.2199 19.609 21.9675 19.1885 21.2188C16.7229 16.7822 14.8717 13.4622 13.643 11.2503C12.3855 8.99988 13.2843 6.74093 14.1708 5.97511C15.1562 7.72922 16.6281 10.3775 18.5947 13.9114Z" fill="url(#paint0_linear_1_929)"/>
<defs>
<linearGradient id="paint0_linear_1_929" x1="12" y1="-1.4011e-06" x2="12" y2="22" gradientUnits="userSpaceOnUse">
<stop stop-color="#5DC4F6"/>
<stop offset="1" stop-color="#376DE9"/>
</linearGradient>
</defs>
</svg>
