<svg width="8" height="13" viewBox="0 0 8 13" fill="none" xmlns="http://www.w3.org/2000/svg">
<path d="M0.267179 12.4329C0.0891412 12.2549 0.00012207 12.0472 0.00012207 11.8098C0.00012207 11.5724 0.0891412 11.3647 0.267179 11.1867L5.10386 6.35L0.267179 1.51332C0.0891412 1.33528 0.00012207 1.12757 0.00012207 0.890187C0.00012207 0.652804 0.0891412 0.445093 0.267179 0.267056C0.445216 0.0890186 0.652926 0 0.890309 0C1.12769 0 1.3354 0.0890186 1.51344 0.267056L6.85456 5.60818C6.95347 5.70709 7.02785 5.82063 7.0777 5.94882C7.12676 6.0778 7.15129 6.21153 7.15129 6.35C7.15129 6.48847 7.12676 6.6218 7.0777 6.74999C7.02785 6.87897 6.95347 6.99291 6.85456 7.09182L1.51344 12.4329C1.3354 12.611 1.12769 12.7 0.890309 12.7C0.652926 12.7 0.445216 12.611 0.267179 12.4329Z" fill="#535354"/>
</svg>
