<svg width="141" height="141" viewBox="0 0 141 141" fill="none" xmlns="http://www.w3.org/2000/svg">
<ellipse cx="1.95" cy="1.95" rx="1.95" ry="1.95" fill="#E7D08E"/>
<ellipse cx="1.95" cy="40.9501" rx="1.95" ry="1.95" fill="#E7D08E"/>
<ellipse cx="40.9495" cy="1.95" rx="1.95" ry="1.95" fill="#E7D08E"/>
<ellipse cx="40.9495" cy="40.9501" rx="1.95" ry="1.95" fill="#E7D08E"/>
<ellipse cx="1.95" cy="21.4503" rx="1.95" ry="1.95" fill="#E7D08E"/>
<ellipse cx="1.95" cy="60.4498" rx="1.95" ry="1.95" fill="#E7D08E"/>
<ellipse cx="40.9495" cy="21.4503" rx="1.95" ry="1.95" fill="#E7D08E"/>
<ellipse cx="40.9495" cy="60.4498" rx="1.95" ry="1.95" fill="#E7D08E"/>
<ellipse cx="21.4498" cy="1.95" rx="1.95" ry="1.95" fill="#E7D08E"/>
<ellipse cx="21.4498" cy="40.9501" rx="1.95" ry="1.95" fill="#E7D08E"/>
<ellipse cx="60.4483" cy="1.95" rx="1.95" ry="1.95" fill="#E7D08E"/>
<ellipse cx="60.4483" cy="40.9501" rx="1.95" ry="1.95" fill="#E7D08E"/>
<ellipse cx="21.4498" cy="21.4503" rx="1.95" ry="1.95" fill="#E7D08E"/>
<ellipse cx="21.4498" cy="60.4498" rx="1.95" ry="1.95" fill="#E7D08E"/>
<ellipse cx="60.4483" cy="21.4503" rx="1.95" ry="1.95" fill="#E7D08E"/>
<ellipse cx="60.4483" cy="60.4498" rx="1.95" ry="1.95" fill="#E7D08E"/>
<ellipse cx="1.95" cy="79.9499" rx="1.95" ry="1.95" fill="#E7D08E"/>
<ellipse cx="1.95" cy="118.95" rx="1.95" ry="1.95" fill="#E7D08E"/>
<ellipse cx="40.9495" cy="79.95" rx="1.95" ry="1.95" fill="#E7D08E"/>
<ellipse cx="40.9495" cy="118.95" rx="1.95" ry="1.95" fill="#E7D08E"/>
<ellipse cx="1.95" cy="99.4506" rx="1.95" ry="1.95" fill="#E7D08E"/>
<ellipse cx="1.95" cy="138.45" rx="1.95" ry="1.95" fill="#E7D08E"/>
<ellipse cx="40.9495" cy="99.4506" rx="1.95" ry="1.95" fill="#E7D08E"/>
<ellipse cx="40.9495" cy="138.45" rx="1.95" ry="1.95" fill="#E7D08E"/>
<ellipse cx="21.4498" cy="79.95" rx="1.95" ry="1.95" fill="#E7D08E"/>
<ellipse cx="21.4498" cy="118.95" rx="1.95" ry="1.95" fill="#E7D08E"/>
<ellipse cx="60.4483" cy="79.95" rx="1.95" ry="1.95" fill="#E7D08E"/>
<ellipse cx="60.4483" cy="118.95" rx="1.95" ry="1.95" fill="#E7D08E"/>
<ellipse cx="21.4498" cy="99.4506" rx="1.95" ry="1.95" fill="#E7D08E"/>
<ellipse cx="21.4498" cy="138.45" rx="1.95" ry="1.95" fill="#E7D08E"/>
<ellipse cx="60.4483" cy="99.4506" rx="1.95" ry="1.95" fill="#E7D08E"/>
<ellipse cx="60.4483" cy="138.45" rx="1.95" ry="1.95" fill="#E7D08E"/>
<ellipse cx="79.9461" cy="1.95" rx="1.95" ry="1.95" fill="#E7D08E"/>
<ellipse cx="79.9461" cy="40.9501" rx="1.95" ry="1.95" fill="#E7D08E"/>
<ellipse cx="118.944" cy="1.95" rx="1.95" ry="1.95" fill="#E7D08E"/>
<ellipse cx="118.944" cy="40.9501" rx="1.95" ry="1.95" fill="#E7D08E"/>
<ellipse cx="79.9461" cy="21.4503" rx="1.95" ry="1.95" fill="#E7D08E"/>
<ellipse cx="79.9461" cy="60.4498" rx="1.95" ry="1.95" fill="#E7D08E"/>
<ellipse cx="118.944" cy="21.4503" rx="1.95" ry="1.95" fill="#E7D08E"/>
<ellipse cx="118.944" cy="60.4498" rx="1.95" ry="1.95" fill="#E7D08E"/>
<ellipse cx="99.4459" cy="1.95" rx="1.95" ry="1.95" fill="#E7D08E"/>
<ellipse cx="99.4459" cy="40.9501" rx="1.95" ry="1.95" fill="#E7D08E"/>
<ellipse cx="138.444" cy="1.95" rx="1.95" ry="1.95" fill="#E7D08E"/>
<ellipse cx="138.444" cy="40.9501" rx="1.95" ry="1.95" fill="#E7D08E"/>
<ellipse cx="99.4459" cy="21.4503" rx="1.95" ry="1.95" fill="#E7D08E"/>
<ellipse cx="99.4459" cy="60.4498" rx="1.95" ry="1.95" fill="#E7D08E"/>
<ellipse cx="138.444" cy="21.4503" rx="1.95" ry="1.95" fill="#E7D08E"/>
<ellipse cx="138.444" cy="60.4498" rx="1.95" ry="1.95" fill="#E7D08E"/>
<ellipse cx="79.9461" cy="79.9504" rx="1.95" ry="1.95" fill="#E7D08E"/>
<ellipse cx="79.9461" cy="118.95" rx="1.95" ry="1.95" fill="#E7D08E"/>
<ellipse cx="118.944" cy="79.9502" rx="1.95" ry="1.95" fill="#E7D08E"/>
<ellipse cx="118.944" cy="118.95" rx="1.95" ry="1.95" fill="#E7D08E"/>
<ellipse cx="79.9461" cy="99.4506" rx="1.95" ry="1.95" fill="#E7D08E"/>
<ellipse cx="79.9461" cy="138.45" rx="1.95" ry="1.95" fill="#E7D08E"/>
<ellipse cx="118.944" cy="99.4506" rx="1.95" ry="1.95" fill="#E7D08E"/>
<ellipse cx="118.944" cy="138.45" rx="1.95" ry="1.95" fill="#E7D08E"/>
<ellipse cx="99.4459" cy="79.9502" rx="1.95" ry="1.95" fill="#E7D08E"/>
<ellipse cx="99.4459" cy="118.95" rx="1.95" ry="1.95" fill="#E7D08E"/>
<ellipse cx="138.444" cy="79.9502" rx="1.95" ry="1.95" fill="#E7D08E"/>
<ellipse cx="138.444" cy="118.95" rx="1.95" ry="1.95" fill="#E7D08E"/>
<ellipse cx="99.4459" cy="99.4506" rx="1.95" ry="1.95" fill="#E7D08E"/>
<ellipse cx="99.4459" cy="138.45" rx="1.95" ry="1.95" fill="#E7D08E"/>
<ellipse cx="138.444" cy="99.4506" rx="1.95" ry="1.95" fill="#E7D08E"/>
<ellipse cx="138.444" cy="138.45" rx="1.95" ry="1.95" fill="#E7D08E"/>
</svg>
