<svg width="141" height="141" viewBox="0 0 141 141" fill="none" xmlns="http://www.w3.org/2000/svg">
<ellipse cx="1.95" cy="1.95" rx="1.95" ry="1.95" fill="#B9D8EC"/>
<ellipse cx="1.95" cy="40.95" rx="1.95" ry="1.95" fill="#B9D8EC"/>
<ellipse cx="40.95" cy="1.95" rx="1.95" ry="1.95" fill="#B9D8EC"/>
<ellipse cx="40.95" cy="40.95" rx="1.95" ry="1.95" fill="#B9D8EC"/>
<ellipse cx="1.95" cy="21.4502" rx="1.95" ry="1.95" fill="#B9D8EC"/>
<ellipse cx="1.95" cy="60.4499" rx="1.95" ry="1.95" fill="#B9D8EC"/>
<ellipse cx="40.95" cy="21.4502" rx="1.95" ry="1.95" fill="#B9D8EC"/>
<ellipse cx="40.95" cy="60.4499" rx="1.95" ry="1.95" fill="#B9D8EC"/>
<ellipse cx="21.45" cy="1.95" rx="1.95" ry="1.95" fill="#B9D8EC"/>
<ellipse cx="21.45" cy="40.95" rx="1.95" ry="1.95" fill="#B9D8EC"/>
<ellipse cx="60.448" cy="1.95" rx="1.95" ry="1.95" fill="#B9D8EC"/>
<ellipse cx="60.448" cy="40.95" rx="1.95" ry="1.95" fill="#B9D8EC"/>
<ellipse cx="21.45" cy="21.4502" rx="1.95" ry="1.95" fill="#B9D8EC"/>
<ellipse cx="21.45" cy="60.4499" rx="1.95" ry="1.95" fill="#B9D8EC"/>
<ellipse cx="60.448" cy="21.4502" rx="1.95" ry="1.95" fill="#B9D8EC"/>
<ellipse cx="60.448" cy="60.4499" rx="1.95" ry="1.95" fill="#B9D8EC"/>
<ellipse cx="1.95" cy="79.9499" rx="1.95" ry="1.95" fill="#B9D8EC"/>
<ellipse cx="1.95" cy="118.95" rx="1.95" ry="1.95" fill="#B9D8EC"/>
<ellipse cx="40.95" cy="79.95" rx="1.95" ry="1.95" fill="#B9D8EC"/>
<ellipse cx="40.95" cy="118.95" rx="1.95" ry="1.95" fill="#B9D8EC"/>
<ellipse cx="1.95" cy="99.4505" rx="1.95" ry="1.95" fill="#B9D8EC"/>
<ellipse cx="1.95" cy="138.45" rx="1.95" ry="1.95" fill="#B9D8EC"/>
<ellipse cx="40.95" cy="99.4505" rx="1.95" ry="1.95" fill="#B9D8EC"/>
<ellipse cx="40.95" cy="138.45" rx="1.95" ry="1.95" fill="#B9D8EC"/>
<ellipse cx="21.45" cy="79.95" rx="1.95" ry="1.95" fill="#B9D8EC"/>
<ellipse cx="21.45" cy="118.95" rx="1.95" ry="1.95" fill="#B9D8EC"/>
<ellipse cx="60.448" cy="79.95" rx="1.95" ry="1.95" fill="#B9D8EC"/>
<ellipse cx="60.448" cy="118.95" rx="1.95" ry="1.95" fill="#B9D8EC"/>
<ellipse cx="21.45" cy="99.4505" rx="1.95" ry="1.95" fill="#B9D8EC"/>
<ellipse cx="21.45" cy="138.45" rx="1.95" ry="1.95" fill="#B9D8EC"/>
<ellipse cx="60.448" cy="99.4505" rx="1.95" ry="1.95" fill="#B9D8EC"/>
<ellipse cx="60.448" cy="138.45" rx="1.95" ry="1.95" fill="#B9D8EC"/>
<ellipse cx="79.9461" cy="1.95" rx="1.95" ry="1.95" fill="#B9D8EC"/>
<ellipse cx="79.9461" cy="40.95" rx="1.95" ry="1.95" fill="#B9D8EC"/>
<ellipse cx="118.944" cy="1.95" rx="1.95" ry="1.95" fill="#B9D8EC"/>
<ellipse cx="118.944" cy="40.95" rx="1.95" ry="1.95" fill="#B9D8EC"/>
<ellipse cx="79.9461" cy="21.4502" rx="1.95" ry="1.95" fill="#B9D8EC"/>
<ellipse cx="79.9461" cy="60.4499" rx="1.95" ry="1.95" fill="#B9D8EC"/>
<ellipse cx="118.944" cy="21.4502" rx="1.95" ry="1.95" fill="#B9D8EC"/>
<ellipse cx="118.944" cy="60.4499" rx="1.95" ry="1.95" fill="#B9D8EC"/>
<ellipse cx="99.4461" cy="1.95" rx="1.95" ry="1.95" fill="#B9D8EC"/>
<ellipse cx="99.4461" cy="40.95" rx="1.95" ry="1.95" fill="#B9D8EC"/>
<ellipse cx="138.444" cy="1.95" rx="1.95" ry="1.95" fill="#B9D8EC"/>
<ellipse cx="138.444" cy="40.95" rx="1.95" ry="1.95" fill="#B9D8EC"/>
<ellipse cx="99.4461" cy="21.4502" rx="1.95" ry="1.95" fill="#B9D8EC"/>
<ellipse cx="99.4461" cy="60.4499" rx="1.95" ry="1.95" fill="#B9D8EC"/>
<ellipse cx="138.444" cy="21.4502" rx="1.95" ry="1.95" fill="#B9D8EC"/>
<ellipse cx="138.444" cy="60.4499" rx="1.95" ry="1.95" fill="#B9D8EC"/>
<ellipse cx="79.9461" cy="79.9504" rx="1.95" ry="1.95" fill="#B9D8EC"/>
<ellipse cx="79.9461" cy="118.95" rx="1.95" ry="1.95" fill="#B9D8EC"/>
<ellipse cx="118.944" cy="79.9502" rx="1.95" ry="1.95" fill="#B9D8EC"/>
<ellipse cx="118.944" cy="118.95" rx="1.95" ry="1.95" fill="#B9D8EC"/>
<ellipse cx="79.9461" cy="99.4505" rx="1.95" ry="1.95" fill="#B9D8EC"/>
<ellipse cx="79.9461" cy="138.45" rx="1.95" ry="1.95" fill="#B9D8EC"/>
<ellipse cx="118.944" cy="99.4505" rx="1.95" ry="1.95" fill="#B9D8EC"/>
<ellipse cx="118.944" cy="138.45" rx="1.95" ry="1.95" fill="#B9D8EC"/>
<ellipse cx="99.4461" cy="79.9502" rx="1.95" ry="1.95" fill="#B9D8EC"/>
<ellipse cx="99.4461" cy="118.95" rx="1.95" ry="1.95" fill="#B9D8EC"/>
<ellipse cx="138.444" cy="79.9502" rx="1.95" ry="1.95" fill="#B9D8EC"/>
<ellipse cx="138.444" cy="118.95" rx="1.95" ry="1.95" fill="#B9D8EC"/>
<ellipse cx="99.4461" cy="99.4505" rx="1.95" ry="1.95" fill="#B9D8EC"/>
<ellipse cx="99.4461" cy="138.45" rx="1.95" ry="1.95" fill="#B9D8EC"/>
<ellipse cx="138.444" cy="99.4505" rx="1.95" ry="1.95" fill="#B9D8EC"/>
<ellipse cx="138.444" cy="138.45" rx="1.95" ry="1.95" fill="#B9D8EC"/>
</svg>
