<svg width="130" height="130" viewBox="0 0 130 130" fill="none" xmlns="http://www.w3.org/2000/svg">
<ellipse cx="2.20703" cy="2.3573" rx="1.79687" ry="1.79687" fill="#CDCBCC"/>
<ellipse cx="2.20703" cy="38.2944" rx="1.79687" ry="1.79687" fill="#CDCBCC"/>
<ellipse cx="38.144" cy="2.3573" rx="1.79687" ry="1.79687" fill="#CDCBCC"/>
<ellipse cx="38.144" cy="38.2944" rx="1.79687" ry="1.79687" fill="#CDCBCC"/>
<ellipse cx="2.20703" cy="20.3268" rx="1.79687" ry="1.79687" fill="#CDCBCC"/>
<ellipse cx="2.20703" cy="56.2639" rx="1.79687" ry="1.79687" fill="#CDCBCC"/>
<ellipse cx="38.144" cy="20.3268" rx="1.79687" ry="1.79687" fill="#CDCBCC"/>
<ellipse cx="38.144" cy="56.2639" rx="1.79687" ry="1.79687" fill="#CDCBCC"/>
<ellipse cx="20.1758" cy="2.3573" rx="1.79687" ry="1.79687" fill="#CDCBCC"/>
<ellipse cx="20.1758" cy="38.2944" rx="1.79687" ry="1.79687" fill="#CDCBCC"/>
<ellipse cx="56.1113" cy="2.3573" rx="1.79687" ry="1.79687" fill="#CDCBCC"/>
<ellipse cx="56.1113" cy="38.2944" rx="1.79687" ry="1.79687" fill="#CDCBCC"/>
<ellipse cx="20.1758" cy="20.3268" rx="1.79687" ry="1.79687" fill="#CDCBCC"/>
<ellipse cx="20.1758" cy="56.2639" rx="1.79687" ry="1.79687" fill="#CDCBCC"/>
<ellipse cx="56.1113" cy="20.3268" rx="1.79687" ry="1.79687" fill="#CDCBCC"/>
<ellipse cx="56.1113" cy="56.2639" rx="1.79687" ry="1.79687" fill="#CDCBCC"/>
<ellipse cx="2.20703" cy="74.2328" rx="1.79687" ry="1.79687" fill="#CDCBCC"/>
<ellipse cx="2.20703" cy="110.17" rx="1.79687" ry="1.79687" fill="#CDCBCC"/>
<ellipse cx="38.144" cy="74.2328" rx="1.79687" ry="1.79687" fill="#CDCBCC"/>
<ellipse cx="38.144" cy="110.17" rx="1.79687" ry="1.79687" fill="#CDCBCC"/>
<ellipse cx="2.20703" cy="92.2023" rx="1.79687" ry="1.79687" fill="#CDCBCC"/>
<ellipse cx="2.20703" cy="128.139" rx="1.79687" ry="1.79687" fill="#CDCBCC"/>
<ellipse cx="38.144" cy="92.2023" rx="1.79687" ry="1.79687" fill="#CDCBCC"/>
<ellipse cx="38.144" cy="128.139" rx="1.79687" ry="1.79687" fill="#CDCBCC"/>
<ellipse cx="20.1758" cy="74.2328" rx="1.79687" ry="1.79687" fill="#CDCBCC"/>
<ellipse cx="20.1758" cy="110.17" rx="1.79687" ry="1.79687" fill="#CDCBCC"/>
<ellipse cx="56.1113" cy="74.2328" rx="1.79687" ry="1.79687" fill="#CDCBCC"/>
<ellipse cx="56.1113" cy="110.17" rx="1.79687" ry="1.79687" fill="#CDCBCC"/>
<ellipse cx="20.1758" cy="92.2023" rx="1.79687" ry="1.79687" fill="#CDCBCC"/>
<ellipse cx="20.1758" cy="128.139" rx="1.79687" ry="1.79687" fill="#CDCBCC"/>
<ellipse cx="56.1113" cy="92.2023" rx="1.79687" ry="1.79687" fill="#CDCBCC"/>
<ellipse cx="56.1113" cy="128.139" rx="1.79687" ry="1.79687" fill="#CDCBCC"/>
<ellipse cx="74.0781" cy="2.3573" rx="1.79687" ry="1.79687" fill="#CDCBCC"/>
<ellipse cx="74.0781" cy="38.2944" rx="1.79687" ry="1.79687" fill="#CDCBCC"/>
<ellipse cx="110.014" cy="2.3573" rx="1.79687" ry="1.79687" fill="#CDCBCC"/>
<ellipse cx="110.014" cy="38.2944" rx="1.79687" ry="1.79687" fill="#CDCBCC"/>
<ellipse cx="74.0781" cy="20.3268" rx="1.79687" ry="1.79687" fill="#CDCBCC"/>
<ellipse cx="74.0781" cy="56.2639" rx="1.79687" ry="1.79687" fill="#CDCBCC"/>
<ellipse cx="110.014" cy="20.3268" rx="1.79687" ry="1.79687" fill="#CDCBCC"/>
<ellipse cx="110.014" cy="56.2639" rx="1.79687" ry="1.79687" fill="#CDCBCC"/>
<ellipse cx="92.0469" cy="2.3573" rx="1.79687" ry="1.79687" fill="#CDCBCC"/>
<ellipse cx="92.0469" cy="38.2944" rx="1.79687" ry="1.79687" fill="#CDCBCC"/>
<ellipse cx="127.982" cy="2.3573" rx="1.79687" ry="1.79687" fill="#CDCBCC"/>
<ellipse cx="127.982" cy="38.2944" rx="1.79687" ry="1.79687" fill="#CDCBCC"/>
<ellipse cx="92.0469" cy="20.3268" rx="1.79687" ry="1.79687" fill="#CDCBCC"/>
<ellipse cx="92.0469" cy="56.2639" rx="1.79687" ry="1.79687" fill="#CDCBCC"/>
<ellipse cx="127.982" cy="20.3268" rx="1.79687" ry="1.79687" fill="#CDCBCC"/>
<ellipse cx="127.982" cy="56.2639" rx="1.79687" ry="1.79687" fill="#CDCBCC"/>
<ellipse cx="74.0781" cy="74.2328" rx="1.79687" ry="1.79687" fill="#CDCBCC"/>
<ellipse cx="74.0781" cy="110.17" rx="1.79687" ry="1.79687" fill="#CDCBCC"/>
<ellipse cx="110.014" cy="74.2328" rx="1.79687" ry="1.79687" fill="#CDCBCC"/>
<ellipse cx="110.014" cy="110.17" rx="1.79687" ry="1.79687" fill="#CDCBCC"/>
<ellipse cx="74.0781" cy="92.2023" rx="1.79687" ry="1.79687" fill="#CDCBCC"/>
<ellipse cx="74.0781" cy="128.139" rx="1.79687" ry="1.79687" fill="#CDCBCC"/>
<ellipse cx="110.014" cy="92.2023" rx="1.79687" ry="1.79687" fill="#CDCBCC"/>
<ellipse cx="110.014" cy="128.139" rx="1.79687" ry="1.79687" fill="#CDCBCC"/>
<ellipse cx="92.0469" cy="74.2328" rx="1.79687" ry="1.79687" fill="#CDCBCC"/>
<ellipse cx="92.0469" cy="110.17" rx="1.79687" ry="1.79687" fill="#CDCBCC"/>
<ellipse cx="127.982" cy="74.2328" rx="1.79687" ry="1.79687" fill="#CDCBCC"/>
<ellipse cx="127.982" cy="110.17" rx="1.79687" ry="1.79687" fill="#CDCBCC"/>
<ellipse cx="92.0469" cy="92.2023" rx="1.79687" ry="1.79687" fill="#CDCBCC"/>
<ellipse cx="92.0469" cy="128.139" rx="1.79687" ry="1.79687" fill="#CDCBCC"/>
<ellipse cx="127.982" cy="92.2023" rx="1.79687" ry="1.79687" fill="#CDCBCC"/>
<ellipse cx="127.982" cy="128.139" rx="1.79687" ry="1.79687" fill="#CDCBCC"/>
</svg>
