<svg width="128" height="128" viewBox="0 0 128 128" fill="none" xmlns="http://www.w3.org/2000/svg">
<ellipse cx="1.76426" cy="1.76426" rx="1.76426" ry="1.76426" fill="#D1D893"/>
<ellipse cx="1.76426" cy="37.0494" rx="1.76426" ry="1.76426" fill="#D1D893"/>
<ellipse cx="37.0494" cy="1.76426" rx="1.76426" ry="1.76426" fill="#D1D893"/>
<ellipse cx="37.0494" cy="37.0494" rx="1.76426" ry="1.76426" fill="#D1D893"/>
<ellipse cx="1.76426" cy="19.4068" rx="1.76426" ry="1.76426" fill="#D1D893"/>
<ellipse cx="1.76426" cy="54.6919" rx="1.76426" ry="1.76426" fill="#D1D893"/>
<ellipse cx="37.0494" cy="19.4068" rx="1.76426" ry="1.76426" fill="#D1D893"/>
<ellipse cx="37.0494" cy="54.6919" rx="1.76426" ry="1.76426" fill="#D1D893"/>
<ellipse cx="19.4068" cy="1.76426" rx="1.76426" ry="1.76426" fill="#D1D893"/>
<ellipse cx="19.4068" cy="37.0494" rx="1.76426" ry="1.76426" fill="#D1D893"/>
<ellipse cx="54.69" cy="1.76426" rx="1.76426" ry="1.76426" fill="#D1D893"/>
<ellipse cx="54.69" cy="37.0494" rx="1.76426" ry="1.76426" fill="#D1D893"/>
<ellipse cx="19.4068" cy="19.4068" rx="1.76426" ry="1.76426" fill="#D1D893"/>
<ellipse cx="19.4068" cy="54.6919" rx="1.76426" ry="1.76426" fill="#D1D893"/>
<ellipse cx="54.69" cy="19.4068" rx="1.76426" ry="1.76426" fill="#D1D893"/>
<ellipse cx="54.69" cy="54.6919" rx="1.76426" ry="1.76426" fill="#D1D893"/>
<ellipse cx="1.76426" cy="72.3343" rx="1.76426" ry="1.76426" fill="#D1D893"/>
<ellipse cx="1.76426" cy="107.619" rx="1.76426" ry="1.76426" fill="#D1D893"/>
<ellipse cx="37.0494" cy="72.3343" rx="1.76426" ry="1.76426" fill="#D1D893"/>
<ellipse cx="37.0494" cy="107.619" rx="1.76426" ry="1.76426" fill="#D1D893"/>
<ellipse cx="1.76426" cy="89.9769" rx="1.76426" ry="1.76426" fill="#D1D893"/>
<ellipse cx="1.76426" cy="125.262" rx="1.76426" ry="1.76426" fill="#D1D893"/>
<ellipse cx="37.0494" cy="89.9769" rx="1.76426" ry="1.76426" fill="#D1D893"/>
<ellipse cx="37.0494" cy="125.262" rx="1.76426" ry="1.76426" fill="#D1D893"/>
<ellipse cx="19.4068" cy="72.3343" rx="1.76426" ry="1.76426" fill="#D1D893"/>
<ellipse cx="19.4068" cy="107.619" rx="1.76426" ry="1.76426" fill="#D1D893"/>
<ellipse cx="54.69" cy="72.3343" rx="1.76426" ry="1.76426" fill="#D1D893"/>
<ellipse cx="54.69" cy="107.619" rx="1.76426" ry="1.76426" fill="#D1D893"/>
<ellipse cx="19.4068" cy="89.9769" rx="1.76426" ry="1.76426" fill="#D1D893"/>
<ellipse cx="19.4068" cy="125.262" rx="1.76426" ry="1.76426" fill="#D1D893"/>
<ellipse cx="54.69" cy="89.9769" rx="1.76426" ry="1.76426" fill="#D1D893"/>
<ellipse cx="54.69" cy="125.262" rx="1.76426" ry="1.76426" fill="#D1D893"/>
<ellipse cx="72.3312" cy="1.76426" rx="1.76426" ry="1.76426" fill="#D1D893"/>
<ellipse cx="72.3312" cy="37.0494" rx="1.76426" ry="1.76426" fill="#D1D893"/>
<ellipse cx="107.614" cy="1.76426" rx="1.76426" ry="1.76426" fill="#D1D893"/>
<ellipse cx="107.614" cy="37.0494" rx="1.76426" ry="1.76426" fill="#D1D893"/>
<ellipse cx="72.3312" cy="19.4068" rx="1.76426" ry="1.76426" fill="#D1D893"/>
<ellipse cx="72.3312" cy="54.6919" rx="1.76426" ry="1.76426" fill="#D1D893"/>
<ellipse cx="107.614" cy="19.4068" rx="1.76426" ry="1.76426" fill="#D1D893"/>
<ellipse cx="107.614" cy="54.6919" rx="1.76426" ry="1.76426" fill="#D1D893"/>
<ellipse cx="89.9737" cy="1.76426" rx="1.76426" ry="1.76426" fill="#D1D893"/>
<ellipse cx="89.9737" cy="37.0494" rx="1.76426" ry="1.76426" fill="#D1D893"/>
<ellipse cx="125.257" cy="1.76426" rx="1.76426" ry="1.76426" fill="#D1D893"/>
<ellipse cx="125.257" cy="37.0494" rx="1.76426" ry="1.76426" fill="#D1D893"/>
<ellipse cx="89.9737" cy="19.4068" rx="1.76426" ry="1.76426" fill="#D1D893"/>
<ellipse cx="89.9737" cy="54.6919" rx="1.76426" ry="1.76426" fill="#D1D893"/>
<ellipse cx="125.257" cy="19.4068" rx="1.76426" ry="1.76426" fill="#D1D893"/>
<ellipse cx="125.257" cy="54.6919" rx="1.76426" ry="1.76426" fill="#D1D893"/>
<ellipse cx="72.3312" cy="72.3343" rx="1.76426" ry="1.76426" fill="#D1D893"/>
<ellipse cx="72.3312" cy="107.619" rx="1.76426" ry="1.76426" fill="#D1D893"/>
<ellipse cx="107.614" cy="72.3343" rx="1.76426" ry="1.76426" fill="#D1D893"/>
<ellipse cx="107.614" cy="107.619" rx="1.76426" ry="1.76426" fill="#D1D893"/>
<ellipse cx="72.3312" cy="89.9769" rx="1.76426" ry="1.76426" fill="#D1D893"/>
<ellipse cx="72.3312" cy="125.262" rx="1.76426" ry="1.76426" fill="#D1D893"/>
<ellipse cx="107.614" cy="89.9769" rx="1.76426" ry="1.76426" fill="#D1D893"/>
<ellipse cx="107.614" cy="125.262" rx="1.76426" ry="1.76426" fill="#D1D893"/>
<ellipse cx="89.9737" cy="72.3343" rx="1.76426" ry="1.76426" fill="#D1D893"/>
<ellipse cx="89.9737" cy="107.619" rx="1.76426" ry="1.76426" fill="#D1D893"/>
<ellipse cx="125.257" cy="72.3343" rx="1.76426" ry="1.76426" fill="#D1D893"/>
<ellipse cx="125.257" cy="107.619" rx="1.76426" ry="1.76426" fill="#D1D893"/>
<ellipse cx="89.9737" cy="89.9769" rx="1.76426" ry="1.76426" fill="#D1D893"/>
<ellipse cx="89.9737" cy="125.262" rx="1.76426" ry="1.76426" fill="#D1D893"/>
<ellipse cx="125.257" cy="89.9769" rx="1.76426" ry="1.76426" fill="#D1D893"/>
<ellipse cx="125.257" cy="125.262" rx="1.76426" ry="1.76426" fill="#D1D893"/>
</svg>
