<svg width="42" height="29" viewBox="0 0 42 29" fill="none" xmlns="http://www.w3.org/2000/svg">
<path d="M41.2519 11.9309C41.4701 14.4273 39.5972 17.3868 35.0963 20.2208C24.8491 26.6728 11.6014 28.7453 4.24376 28.2761C3.91447 28.2555 3.70455 28.0435 3.6284 27.7924V27.7883C3.59959 27.6957 3.59136 27.5969 3.60371 27.5022C3.63046 27.2553 3.78276 27.0227 4.08118 26.9301C9.07611 25.3762 20.1917 21.1654 23.1018 15.6539C23.1512 15.5613 23.1965 15.4708 23.2397 15.3782C22.5544 15.3267 21.8238 15.3164 21.0582 15.3452C15.1001 15.5737 7.00775 18.1689 1.53741 21.8137C1.062 22.1307 0.510428 21.7808 0.463092 21.3136C0.463092 21.2951 0.463101 21.2745 0.458984 21.2539C0.458984 21.1366 0.487795 21.0131 0.559828 20.8917C2.38122 17.8273 6.21539 12.8529 13.2643 9.43446C16.5119 7.85798 20.4428 6.61285 25.1764 6.03865C31.1098 5.31832 35.7487 6.16419 38.49 7.9156C40.1488 8.97139 41.112 10.3585 41.2499 11.9309H41.2519Z" fill="#8CAFBF"/>
<path d="M40.7906 6.63562L41.2537 11.931C41.4121 13.738 40.4736 15.7899 38.2365 17.8583C37.3845 18.6486 36.3431 19.4409 35.1 20.2209C34.956 20.3115 34.8119 20.4 34.6699 20.4885C29.8108 23.4644 24.3158 25.4793 19.1109 26.7224C13.4018 28.0848 8.04262 28.5191 4.24755 28.2762C3.91825 28.2556 3.70833 28.0436 3.63219 27.7926L3.14648 22.2296L4.81763 21.8242L10.8457 20.3588L23.1056 15.6541L27.9586 13.7936L37.9299 8.23268L37.9402 8.22651L38.4958 7.9178L40.7927 6.63768L40.7906 6.63562Z" fill="#A8A3B5"/>
<path d="M40.7912 6.63562L41.2542 11.931C41.4127 13.738 40.4742 15.7899 38.2371 17.8583C38.2309 17.6936 38.2412 17.529 38.268 17.3684C38.3832 16.6852 38.7372 16.0677 39.0871 15.4709C39.2312 15.2281 39.3773 14.9687 39.3732 14.6868C39.3691 14.4048 39.1447 14.1064 38.8648 14.1311C39.0336 13.7627 39.2065 13.3799 39.2106 12.9724C39.2106 12.5649 38.9924 12.1286 38.6055 12.0092C38.4491 11.9619 38.2453 11.9454 38.1857 11.7911C38.1445 11.6841 38.2021 11.5688 38.2515 11.4638C38.5479 10.83 38.5314 10.0602 38.2104 9.43665C38.0889 9.19997 37.9222 8.97564 37.8811 8.71221C37.8523 8.54139 37.877 8.38086 37.9408 8.22651L38.4964 7.9178L40.7932 6.63768L40.7912 6.63562Z" fill="#8F8AA0"/>
<path d="M19.107 26.7199C13.3979 28.0823 8.03872 28.5166 4.24364 28.2737C3.91435 28.2531 3.70443 28.0411 3.62828 27.7901L3.14258 22.2271L4.81373 21.8217L4.91663 22.2168C4.97014 22.9454 5.02777 23.6739 5.08333 24.4025C5.10803 24.7338 5.13891 25.0796 5.30973 25.3615C5.48261 25.6455 5.84482 25.8431 6.15147 25.7176C6.18646 25.9975 6.22145 26.2774 6.25644 26.5552C7.32046 26.7178 8.38653 26.8619 9.45879 26.9401C11.6095 27.0965 13.7787 26.9874 15.9026 26.6149C16.979 26.4276 18.1706 26.195 19.107 26.7199Z" fill="#8F8AA0"/>
<path d="M26.1331 8.9425L21.06 15.3452C15.1019 15.5736 7.00957 18.1688 1.53923 21.8137C1.06382 22.1306 0.512247 21.7807 0.464911 21.3136C0.464911 21.295 0.46492 21.2745 0.460804 21.2539C0.380539 20.301 0.0450676 16.1993 0.00390625 16.0326L9.94849 9.56199L13.2682 9.43439L26.1331 8.9425Z" fill="#F8957A"/>
<path d="M34.6368 14.9418C24.3896 21.3939 11.1419 23.4663 3.78427 22.9971C3.02279 22.9477 2.89314 21.8796 3.62169 21.6511C8.701 20.0726 20.1006 15.7465 22.7823 10.0971C16.7686 9.6423 7.25213 12.4186 1.07792 16.5327C0.464618 16.9402 -0.274239 16.2425 0.102388 15.6107C2.76347 11.1344 9.72181 2.57901 24.719 0.757617C30.1852 0.0928607 34.5524 0.759677 37.3493 2.23943C38.4133 2.79922 39.251 3.47838 39.8354 4.24604C41.9923 7.08206 40.6957 11.1282 34.6368 14.9398V14.9418Z" fill="#FC6939"/>
<mask id="mask0_1227_3408" style="mask-type:luminance" maskUnits="userSpaceOnUse" x="0" y="0" width="41" height="24">
<path d="M34.6368 14.9418C24.3896 21.3939 11.1419 23.4663 3.78427 22.9971C3.02279 22.9477 2.89314 21.8796 3.62169 21.6511C8.701 20.0726 20.1006 15.7465 22.7823 10.0971C16.7686 9.6423 7.25213 12.4186 1.07792 16.5327C0.464618 16.9402 -0.274239 16.2425 0.102388 15.6107C2.76347 11.1344 9.72181 2.57901 24.719 0.757617C30.1852 0.0928607 34.5524 0.759677 37.3493 2.23943C38.4133 2.79922 39.251 3.47838 39.8354 4.24604C41.9923 7.08206 40.6957 11.1282 34.6368 14.9398V14.9418Z" fill="white"/>
</mask>
<g mask="url(#mask0_1227_3408)">
<path d="M2.39792 15.8193C2.49465 16.021 2.60578 16.235 2.57491 16.4573C2.54404 16.6796 2.28677 16.8792 2.09537 16.7619C2.01305 16.7125 1.96779 16.6219 1.92662 16.5355C1.49031 15.6176 1.23716 14.6133 1.18571 13.5986C1.17336 13.3517 1.14043 12.5449 1.57057 12.9545C1.86693 13.2364 1.79284 13.8518 1.86693 14.2222C1.97601 14.7738 2.15506 15.311 2.39792 15.8152V15.8193Z" fill="#E9552D"/>
<path d="M4.63121 10.4141C4.44393 10.9842 4.40688 11.6284 4.65591 12.1738C4.88229 12.6677 5.33301 13.0732 5.3927 13.6144C5.43386 13.9767 5.28569 14.3327 5.14162 14.6682L4.75264 15.5717C4.72177 15.6437 4.68266 15.724 4.60652 15.7466C4.50361 15.7775 4.40895 15.6807 4.34515 15.5943C3.60424 14.5632 3.2379 13.2687 3.33051 12.003C3.38814 11.2147 3.6207 10.443 4.00144 9.75144C4.19078 9.40775 4.41512 9.07639 4.67856 8.78415C4.84526 8.59892 4.92758 8.58657 5.14162 8.74916C5.30832 8.87676 5.33714 8.93438 5.26922 9.12784C5.1375 9.50859 4.59006 9.98812 4.6271 10.4162L4.63121 10.4141Z" fill="#E9552D"/>
<path d="M9.20551 6.05957C9.28577 7.34792 9.03469 8.65479 8.48519 9.82377C8.31848 10.1778 8.12501 10.5215 8.01182 10.894C7.74839 11.7542 7.93568 12.6824 7.87805 13.5797C7.86776 13.7403 7.84924 13.9049 7.77309 14.0469C7.69694 14.1889 7.55288 14.3042 7.39235 14.3001C7.24417 14.298 7.11245 14.1972 7.03424 14.0696C6.95603 13.942 6.92517 13.7958 6.89841 13.6497C6.68849 12.4869 6.7667 11.2727 7.12275 10.1469C7.31826 9.52947 7.5961 8.93263 7.70106 8.29257C7.80602 7.65251 7.70106 6.93219 7.23594 6.48147L9.20757 6.05957H9.20551Z" fill="#E9552D"/>
<path d="M11.9799 4.3512C11.7144 5.24028 12.2454 6.1623 12.2989 7.08843C12.3771 8.45293 11.4181 9.73305 11.5642 11.0934C11.591 11.3342 11.6506 11.5771 11.6239 11.8179C11.5971 12.0587 11.449 12.3097 11.2102 12.3612C11.0065 12.4044 10.7945 12.283 10.6731 12.1122C10.5516 11.9413 10.5084 11.7294 10.4817 11.5215C10.3314 10.3546 10.634 9.1856 10.8603 8.03308C11.0867 6.87851 11.2267 5.64572 10.7739 4.55906L11.9779 4.35326L11.9799 4.3512Z" fill="#E9552D"/>
<path d="M15.411 2.816C14.3264 4.65385 14.0917 6.97124 14.7812 8.9902C14.9582 9.50884 15.1928 10.0069 15.4665 10.4844C15.5982 10.7149 15.7464 10.9701 15.6929 11.2314C15.6168 11.6101 15.1825 11.7809 14.81 11.8859C14.5692 11.9538 14.3222 12.0238 14.0712 12.0156C13.8201 12.0073 13.5587 11.9168 13.4085 11.7151C13.2418 11.4928 13.2418 11.1903 13.2479 10.9104L13.3467 6.8601C13.3838 5.31449 13.4496 3.67421 14.3058 2.38586L15.411 2.816Z" fill="#E9552D"/>
<path d="M21.7956 2.82601C21.9808 2.87334 22.164 2.93097 22.3451 2.99477C22.5139 3.05446 22.8617 3.29731 23.0284 3.28907C21.8512 3.35287 20.5896 3.27878 19.4659 3.66158C18.6632 3.93531 17.9141 4.42925 17.4572 5.1434C17.0353 5.79992 16.883 6.62315 17.0415 7.38669C17.1711 8.01646 17.4984 8.58449 17.8194 9.14017L18.6077 10.5067C18.3545 10.7763 17.9038 10.7681 17.5848 10.5829C17.2658 10.3976 17.0518 10.0745 16.8686 9.75553C16.3253 8.80882 15.9342 7.75097 15.9095 6.66019C15.8828 5.56941 16.2553 4.4416 17.0477 3.6904C17.8379 2.94126 18.8979 2.66548 19.9598 2.62638C20.5052 2.6058 21.0526 2.65725 21.5857 2.77456C21.6577 2.79102 21.7277 2.80749 21.7977 2.82601H21.7956Z" fill="#E9552D"/>
<path d="M21.1889 6.22224C20.8122 6.67502 20.6311 7.29655 20.7587 7.87076C20.8863 8.44496 21.3391 8.94712 21.9113 9.08501C22.399 9.20232 22.9485 9.06855 23.3869 9.3114C23.747 9.51104 23.9364 9.90824 24.1422 10.2643C24.5394 10.9537 25.0724 11.565 25.7022 12.0528C26.0418 12.3141 26.4122 12.5426 26.8177 12.6825C27.6121 12.9542 28.5259 12.8575 29.2462 12.4232C28.7482 13.1497 27.8611 13.5922 26.9803 13.5531C25.9656 13.5099 25.0704 12.8821 24.346 12.1721C24.0269 11.8593 23.7265 11.5238 23.3642 11.2645C22.8292 10.8817 22.185 10.6821 21.584 10.4125C20.9831 10.1429 20.3842 9.76212 20.1022 9.16734C19.8779 8.69604 19.882 8.14654 19.9623 7.63202C20.0755 6.90758 20.3677 6.06583 20.9542 5.58425C21.5079 5.12941 22.397 5.35991 23.0267 5.50398C22.3332 5.34551 21.6231 5.69949 21.1889 6.22224Z" fill="#E9552D"/>
<path d="M29.4839 3.61463C28.6628 2.87578 27.6317 2.42301 26.6191 1.98052C25.1517 1.34046 23.6102 0.688057 22.0131 0.799192C21.8382 0.811541 21.618 0.873281 21.5974 1.04822C21.5727 1.24579 21.8217 1.35075 22.0152 1.38986C23.7748 1.75413 25.4954 2.30981 27.1357 3.0466C27.6605 3.28122 28.1812 3.53848 28.6237 3.90276C29.4716 4.60044 29.9635 5.63153 30.3504 6.65851C30.443 6.90547 30.6426 7.27593 30.9699 7.10511C31.2251 6.97339 31.1222 6.61323 31.0748 6.39302C30.9328 5.71592 30.6529 5.06762 30.2578 4.49753C30.0334 4.17442 29.7721 3.87394 29.4798 3.61051L29.4839 3.61463Z" fill="#E9552D"/>
<path d="M32.9883 4.49348C32.8545 3.97896 32.6261 3.49531 32.375 3.02607C32.0642 2.4457 31.7123 1.87767 31.2493 1.40637C31.0558 1.2088 30.8747 1.09149 30.7121 0.860987C30.531 0.607845 30.319 0.367047 30.035 0.227099C29.7839 0.103615 29.4999 0.0706912 29.2221 0.0398202L28.0016 -0.0980731C27.8617 -0.114538 27.7197 -0.128942 27.5838 -0.096013C27.448 -0.063084 27.3163 0.0295268 27.2792 0.165359C27.2442 0.286785 27.2916 0.420558 27.3739 0.517287C27.4562 0.614016 27.5653 0.681934 27.6744 0.743676C28.0078 0.933018 28.3597 1.08944 28.724 1.21086C29.0409 1.31788 29.2653 1.49899 29.5369 1.69862C30.14 2.14317 30.675 2.68032 31.1175 3.28539C31.3933 3.66408 31.6321 4.06746 31.8708 4.47084C32.2371 5.09238 32.5088 5.68921 32.727 6.37249C33.1139 6.35809 33.0686 5.99793 33.0912 5.73038C33.1283 5.31053 33.0953 4.90097 32.9883 4.49142V4.49348Z" fill="#E9552D"/>
<path d="M34.9768 1.78471C34.8575 1.43484 34.7196 1.07468 34.4418 0.831829C33.9684 0.418157 33.2584 0.477841 32.6348 0.562222L34.0322 2.51739C34.452 3.10394 34.8883 3.73577 34.9233 4.45609C34.9377 4.7648 34.9645 5.26079 35.409 5.16201C35.7754 5.07968 35.7569 4.79155 35.6972 4.50548C35.5058 3.58552 35.2794 2.67586 34.9768 1.78471Z" fill="#E9552D"/>
<path d="M6.30183 20.2044C6.19892 20.5934 6.47678 20.9721 6.73815 21.2787C7.03451 21.6265 7.31646 21.9949 7.62106 22.3345C7.88655 22.6329 8.27553 22.8326 8.58835 23.0939C8.72624 23.2092 8.87442 23.3738 8.82091 23.5467C8.76946 23.7155 8.55748 23.771 8.38048 23.7793C7.52639 23.8184 6.66817 23.3677 6.21745 22.6412C5.76674 21.9147 5.74204 20.9453 6.15365 20.1982L6.30389 20.2044H6.30183Z" fill="#E9552D"/>
<path d="M10.5195 20.721C11.0464 21.1141 11.6906 21.3137 12.3183 21.5072L14.294 22.1143C14.4545 22.1637 14.6212 22.2152 14.753 22.3222C14.8847 22.4292 14.9732 22.6062 14.9279 22.7688C13.8433 23.2195 12.5858 23.238 11.4889 22.8202C10.3919 22.4024 9.46579 21.5525 8.95539 20.4946C8.80309 20.1797 8.66109 19.7702 8.84426 19.4368C8.96774 19.2083 9.26616 19.0169 9.50695 19.1877C9.72922 19.3462 9.74569 19.7578 9.87329 19.9883C10.0318 20.2744 10.2602 20.5234 10.5216 20.7189L10.5195 20.721Z" fill="#E9552D"/>
<path d="M19.5515 21.1695C19.6811 21.2765 19.8211 21.437 19.7532 21.5914C19.7038 21.7025 19.5679 21.7416 19.4486 21.7581C18.7776 21.8466 18.1067 21.5749 17.5346 21.2148C16.9624 20.8546 16.4479 20.4018 15.8614 20.0664C14.5648 19.3234 13.0089 19.1999 11.6238 18.6463C11.4468 18.5763 11.2472 18.4611 11.2348 18.2717C11.1937 17.5308 14.0173 18.3314 14.3981 18.4405C15.602 18.7883 16.7587 19.2946 17.8309 19.9429C18.436 20.3092 19.0123 20.7188 19.5556 21.1715L19.5515 21.1695Z" fill="#E9552D"/>
<path d="M14.4965 16.5432C14.3298 16.4938 14.1055 16.465 14.0211 16.6173C13.9635 16.7223 14.0211 16.8622 14.1137 16.9363C14.2063 17.0104 14.3298 17.0372 14.4492 17.0619C16.0401 17.3932 17.6063 17.8316 19.1375 18.3749C19.8146 18.6157 20.5081 18.8915 20.9959 19.4183C21.3273 19.7765 21.5475 20.2313 21.9117 20.5565C22.3748 20.9701 23.0601 21.1224 23.6549 20.9434C23.7969 20.9002 23.9451 20.8302 24.0027 20.6944C24.1036 20.4639 23.8937 20.2231 23.6981 20.0666C22.558 19.1467 21.2346 18.4593 19.8331 18.0312C19.4421 17.9118 19.0449 17.811 18.6497 17.7122L16.4291 17.1524C15.7746 16.9878 15.1489 16.7408 14.4986 16.5473L14.4965 16.5432Z" fill="#E9552D"/>
<path d="M19.6897 15.173C20.124 15.2801 20.5706 15.3665 20.9698 15.5702C21.6181 15.8995 22.0771 16.5005 22.6184 16.9841C23.8059 18.044 25.3803 18.54 26.9032 19.0052C27.0288 19.2892 26.9897 19.639 26.8065 19.8901C26.6234 20.1412 26.3002 20.2832 25.9915 20.2482C25.4832 20.1927 25.1354 19.7337 24.7875 19.3592C24.2113 18.7356 23.493 18.2643 22.7809 17.7971C21.8548 17.1899 20.9225 16.5787 19.9161 16.1156C19.2246 15.7966 18.4919 15.5476 17.7346 15.4879C17.4485 15.4653 17.1336 15.4591 16.9175 15.2718C16.4112 14.8355 16.9648 13.9752 17.5432 14.3498C18.1894 14.7676 18.9406 14.9837 19.6856 15.1689L19.6897 15.173Z" fill="#E9552D"/>
<path d="M22.0451 10.8176C22.9692 12.2747 24.0085 13.7113 25.441 14.6724C26.2518 15.2178 27.1821 15.5965 28.1514 15.7158C29.1208 15.8352 30.1313 15.6829 30.9977 15.2301C30.3577 15.792 29.6765 16.3765 28.8409 16.5432C28.2173 16.6687 27.5731 16.5432 26.9475 16.4217C26.0131 16.2386 25.0561 16.0451 24.2411 15.5491C23.6299 15.1766 23.1297 14.6518 22.6379 14.1332C21.8393 13.2935 21.0017 12.3715 20.8535 11.221L22.0431 10.8176H22.0451Z" fill="#E9552D"/>
<path d="M33.5229 10.5952C33.7019 11.6468 33.5332 12.7253 33.3644 13.779L33.0845 15.5304C33.0434 15.7877 33.0104 16.0799 33.1689 16.2878C33.3726 16.5512 33.8069 16.5265 34.0642 16.3145C34.3214 16.1025 34.4367 15.765 34.5066 15.4378C34.7063 14.5137 34.6486 13.5567 34.589 12.6141C34.5231 11.583 34.4531 10.5272 34.0395 9.57847C33.7802 8.98369 33.3953 8.41566 32.9055 7.98758C32.3354 7.48747 31.613 7.38869 30.9133 7.15612L30.8865 7.14789C30.8309 7.12937 30.7754 7.11084 30.7177 7.11496C30.6601 7.11908 30.6004 7.14995 30.5798 7.20346C30.5572 7.26109 30.5881 7.329 30.6354 7.37016C30.6828 7.41133 30.7445 7.42984 30.8021 7.45043C31.1664 7.57597 31.5122 7.76119 31.8188 7.99581C32.1275 8.23249 32.4547 8.47329 32.7079 8.77377C33.1421 9.28623 33.4097 9.93657 33.5208 10.5952H33.5229Z" fill="#E9552D"/>
<path d="M34.5021 6.87896C35.0681 7.14857 35.5743 7.6034 35.7678 8.19818C35.9036 8.61185 35.8789 9.05845 35.9386 9.48859C36.0498 10.2933 36.4428 11.0301 36.8318 11.7442C36.9676 11.9933 37.1096 12.2526 37.3422 12.4172C37.5953 12.5942 37.9164 12.6333 38.2231 12.6683C38.3754 12.6848 38.5318 12.7033 38.682 12.6724C38.8323 12.6415 38.9804 12.5613 39.0525 12.4234C39.143 12.2485 39.0854 12.0365 39.001 11.8574C38.5729 10.956 37.5398 10.4909 37.015 9.64294C36.6919 9.12019 36.5869 8.49455 36.3317 7.93681C35.8624 6.91395 34.6482 5.9199 33.4648 5.959C33.2014 5.96723 32.833 6.17304 32.6992 6.39531C33.3084 6.55584 33.9217 6.59906 34.5021 6.87485V6.87896Z" fill="#E9552D"/>
<path d="M35.4202 5.20484C35.486 5.32627 35.6362 5.36537 35.77 5.3983C37.2107 5.76669 38.4208 6.92333 38.8551 8.34545C38.9621 8.69738 39.0259 9.06372 39.1638 9.40536C39.3017 9.747 39.5281 10.0722 39.8656 10.2224C40.2031 10.3726 40.6559 10.2944 40.8452 9.97956C40.9543 9.80051 40.9646 9.58029 40.9378 9.37243C40.8699 8.83116 40.5797 8.34545 40.2689 7.89474C39.7874 7.19705 39.242 6.53641 38.5855 5.9972C38.0421 5.5506 37.4268 5.19661 36.7538 4.98669C36.513 4.91054 36.2722 4.81587 36.0232 4.77676C35.7988 4.73972 35.2164 4.82616 35.4222 5.20279L35.4202 5.20484Z" fill="#E9552D"/>
<path d="M41.6891 11.5278C41.543 9.86492 40.8618 8.25345 39.771 6.98774C39.2277 6.35797 38.5876 5.81258 37.8673 5.36598C37.5833 5.19104 37.289 5.03258 36.9865 4.89263C36.8897 4.84735 36.8939 4.71152 36.9926 4.67241C37.7047 4.39046 38.4395 4.1579 39.2009 4.16819C39.4109 4.16819 39.627 4.197 39.8369 4.24845C39.2524 3.48079 38.4148 2.80163 37.3507 2.24183C37.4392 2.70696 37.2766 3.23382 36.9741 3.61662C36.7415 3.91093 36.4431 4.13732 36.12 4.33283C36.0418 4.38017 35.9451 4.32872 35.9389 4.23816C35.8545 2.99097 35.4717 1.75613 34.8276 0.69005C34.0475 -0.600358 32.8683 -1.67055 31.5079 -2.3209C31.4173 -2.36412 31.3062 -2.32708 31.263 -2.23446C31.2197 -2.14185 31.2568 -2.03277 31.3494 -1.98955C32.646 -1.36802 33.7697 -0.349271 34.5147 0.879395C35.126 1.89196 35.4902 3.06506 35.5705 4.25051L35.2618 4.78766C34.7123 5.05727 34.1607 5.32688 33.603 5.59031C33.5186 5.62942 33.426 5.56356 33.4342 5.47094C33.4816 4.95643 33.3499 4.40486 33.2243 4.07351C32.7736 2.88807 31.9668 1.73761 30.8287 0.650953C29.8223 -0.312223 28.6698 -1.1231 27.5584 -1.90928C27.4761 -1.96691 27.3609 -1.94839 27.3012 -1.86607C27.2436 -1.78374 27.2621 -1.66849 27.3444 -1.60881C28.4455 -0.830859 29.5856 -0.0261562 30.5735 0.916439C31.6705 1.96605 32.4464 3.07124 32.8786 4.20523C33.0782 4.72592 33.1523 5.41949 32.9609 5.8558C32.9485 5.88256 32.9259 5.9052 32.8991 5.91755C32.4217 6.13364 31.9401 6.34151 31.4564 6.53702C31.3885 6.56378 31.3124 6.52467 31.2959 6.45264C31.0572 5.43184 30.5097 4.197 29.5918 3.49314C28.6554 2.77694 27.5605 2.30152 26.5006 1.84257L26.2866 1.74996C25.7679 1.52563 25.2328 1.29306 24.6874 1.10166C22.8825 0.467778 20.9603 0.2805 19.1039 0.0973318C19.0031 0.0870414 18.9125 0.161129 18.9022 0.261975C18.8919 0.36282 18.964 0.453377 19.0669 0.463668C20.9027 0.644778 22.8002 0.829999 24.566 1.44948C25.0991 1.63676 25.628 1.86521 26.1404 2.08954L26.3545 2.18215C27.3938 2.63287 28.4681 3.09799 29.3675 3.78745C30.1866 4.41516 30.732 5.6006 30.9563 6.62346C30.9687 6.68109 30.9357 6.74077 30.8802 6.76135C30.45 6.92394 30.0179 7.07212 29.5815 7.20795C29.5239 7.22648 29.4622 7.19766 29.4375 7.14209C28.7192 5.56561 27.3691 4.27109 25.7597 3.63515C24.7821 3.24823 23.6214 3.05889 22.2157 3.05477C20.5548 3.0486 19.3385 3.32644 18.3877 3.92945C17.1199 4.7321 16.4511 6.16451 16.7639 7.41376C16.9244 8.05999 17.3216 8.60538 17.6694 9.08697C18.0193 9.56856 18.3815 10.0687 18.5318 10.6305C18.6532 11.0854 18.6347 11.7542 18.186 12.1473C18.1099 12.2132 18.1016 12.3305 18.1675 12.4066C18.1942 12.4375 18.2292 12.4581 18.2683 12.4663C18.3239 12.4787 18.3815 12.4663 18.4268 12.4252C18.9022 12.0115 19.0833 11.2685 18.8858 10.5359C18.717 9.90814 18.3363 9.38127 17.9658 8.87293C17.6365 8.4181 17.264 7.90358 17.1199 7.32732C16.8153 6.10483 17.6262 4.85147 18.5832 4.24434C19.4744 3.68043 20.6269 3.42111 22.2136 3.42728C23.574 3.4314 24.6895 3.61456 25.6239 3.98296C27.118 4.57362 28.3776 5.76525 29.065 7.2203C29.0958 7.28822 29.0588 7.36848 28.9868 7.38906C28.4805 7.52695 27.9701 7.64427 27.4555 7.7307C27.4226 7.73688 27.3897 7.72864 27.3629 7.70806C26.4759 7.04536 25.5395 6.43618 24.5722 5.89697C23.7757 5.45242 22.7405 4.98935 21.7979 5.36598C21.0364 5.66852 20.524 6.51027 20.5816 7.36642C20.6351 8.16495 21.162 8.92438 21.9235 9.30101C22.1169 9.39568 22.3248 9.46771 22.5409 9.51299C22.829 9.57473 23.1336 9.58914 23.4361 9.56238C23.4794 9.55827 23.5185 9.57885 23.5432 9.61384C23.5905 9.68175 23.6461 9.74761 23.7119 9.80729C23.7243 9.81758 23.7325 9.83199 23.7387 9.84434C24.459 11.5958 25.5642 12.6659 26.9596 12.9623C27.0954 12.9911 27.2353 13.0138 27.3773 13.0282C28.1388 13.1043 28.853 12.8759 29.2872 12.4169C29.8676 11.8016 29.954 10.7684 29.493 9.90608C29.2317 9.41421 28.8118 8.97995 28.2273 8.58686C28.1512 8.53541 28.1553 8.42016 28.2376 8.38105C28.4496 8.27815 28.6678 8.18347 28.8839 8.09292C28.9477 8.06616 29.0094 8.03941 29.0732 8.01266C29.0958 8.00237 29.1226 8.00031 29.1473 8.00442C30.7773 8.34401 32.2611 10.0069 32.3517 11.639C32.4464 13.3431 31.2321 15.0389 29.5857 15.4958C28.1327 15.8992 26.3627 15.4073 24.85 14.1766C23.6996 13.2402 22.792 12.0197 22.2281 10.647C22.189 10.5523 22.0819 10.5091 21.9873 10.5461C21.8926 10.5852 21.8494 10.6923 21.8864 10.7869C22.475 12.2152 23.4197 13.4851 24.6175 14.4606C25.5168 15.1933 26.5088 15.679 27.4844 15.8868C28.2458 16.0494 28.997 16.0412 29.6844 15.8498C31.4894 15.3476 32.823 13.4871 32.718 11.6163C32.6316 10.0419 31.4359 8.4963 29.9335 7.86448C29.8367 7.82332 29.8367 7.68748 29.9335 7.64632C30.2525 7.51255 30.5715 7.37878 30.8905 7.24294C30.9193 7.23059 30.9501 7.23059 30.979 7.24088C31.8969 7.57635 33.07 8.27403 33.5557 9.22692C34.0146 10.1284 34.136 11.1636 34.2513 12.1638C34.3789 13.2607 34.5085 14.3968 34.3583 15.4999C34.1937 16.7121 33.6853 17.7206 32.928 18.338C32.8498 18.4018 32.8374 18.5191 32.9012 18.5973C32.928 18.6302 32.965 18.6529 33.0062 18.6611C33.0597 18.6714 33.1152 18.6611 33.1605 18.6241C33.992 17.947 34.5456 16.8541 34.7247 15.5493C34.8811 14.3988 34.7473 13.2401 34.6176 12.1206C34.5044 11.1368 34.3748 10.0213 33.8849 9.06021C33.4466 8.19994 32.5431 7.54342 31.6705 7.12975C31.5779 7.08653 31.582 6.95275 31.6766 6.91365C32.2344 6.67903 32.7921 6.44441 33.3478 6.20979C33.3601 6.20567 33.3725 6.20156 33.3848 6.1995C34.1896 6.11718 35.1239 6.52468 35.7146 7.23471C36.0747 7.6669 36.2826 8.19171 36.5028 8.74739C36.6736 9.17753 36.8506 9.62413 37.1058 10.0254C37.4475 10.5626 37.9126 10.9969 38.3633 11.4167C38.5547 11.5958 38.7543 11.781 38.9375 11.9703C39.6743 12.7277 40.0221 13.4604 39.9707 14.1478C39.9645 14.2404 40.0262 14.3227 40.1147 14.3412C40.1229 14.3412 40.1312 14.3433 40.1394 14.3453C40.2403 14.3536 40.3288 14.2774 40.337 14.1766C40.3967 13.3801 40.0139 12.5507 39.2009 11.7151C39.0116 11.5196 38.8099 11.3323 38.6144 11.1492C38.1616 10.7272 37.7315 10.3259 37.4166 9.82993C37.1799 9.45742 37.0112 9.02728 36.8465 8.61361C36.6263 8.05587 36.3978 7.47756 35.9986 7.00215C35.589 6.51027 35.0457 6.15422 34.4756 5.969C34.3686 5.93401 34.3604 5.78789 34.4633 5.74467C34.8872 5.56562 35.3091 5.38862 35.7331 5.20957C35.7331 5.20957 35.7537 5.21369 35.764 5.21369C35.8195 5.21369 35.8669 5.1931 35.9019 5.15606L36.3526 5.02846C36.8136 5.20751 37.2602 5.42773 37.68 5.68704C38.3674 6.11306 38.9787 6.63376 39.4973 7.23677C40.5387 8.4428 41.189 9.98223 41.329 11.569C41.3372 11.6513 41.3969 11.7172 41.4731 11.7336C41.4895 11.7378 41.508 11.7378 41.5266 11.7378C41.6274 11.7295 41.7036 11.639 41.6933 11.5381L41.6891 11.5278ZM22.0819 8.96142C21.4357 8.64242 20.9912 8.00237 20.9459 7.3335C20.8985 6.64405 21.3225 5.94019 21.9296 5.69939C22.7282 5.38245 23.6646 5.80641 24.389 6.20979C25.1567 6.63787 25.9058 7.11328 26.6262 7.62368C26.7147 7.68748 26.6797 7.82949 26.5706 7.84184C26.1734 7.883 25.7762 7.90976 25.3728 7.91181C24.885 7.91593 24.3767 7.89123 23.9404 8.10733C23.5061 8.31931 23.3188 8.698 23.3476 9.07462C23.3518 9.14048 23.3003 9.19605 23.2345 9.19811C22.827 9.21046 22.4277 9.13224 22.0819 8.96142ZM29.1637 10.0707C29.491 10.682 29.5445 11.5937 29.0156 12.1556C28.6595 12.5322 28.0606 12.7174 27.4103 12.6536C26.1446 12.526 25.1361 11.7727 24.4076 10.4103C24.3582 10.3177 24.4405 10.2107 24.5434 10.2374C25.0044 10.3609 25.5066 10.3321 25.9388 10.1181C26.5624 9.80935 26.9781 9.20428 27.5337 8.78443C27.5852 8.74533 27.6387 8.71446 27.6922 8.67947C28.4023 9.09314 28.8859 9.55004 29.1658 10.0707H29.1637Z" fill="#FDC5A7"/>
<path d="M28.7334 18.8898C26.3666 18.9659 23.9545 18.011 22.2813 16.3357C22.2155 16.2698 22.1517 16.204 22.0879 16.1381C21.7977 15.8376 21.4972 15.5289 21.1144 15.3169C20.6287 15.0494 20.0792 14.9774 19.5482 14.9095C19.4412 14.895 19.3321 14.8827 19.2251 14.8662C18.7394 14.7963 18.0458 14.6481 17.6671 14.1706C17.6033 14.0903 17.4881 14.078 17.4078 14.1418C17.3275 14.2056 17.3152 14.3208 17.3769 14.4011C17.8359 14.9815 18.62 15.1523 19.1695 15.2326C19.2786 15.249 19.3877 15.2614 19.4988 15.2758C20.0174 15.3416 20.5093 15.4054 20.9333 15.6401C21.2667 15.8232 21.5342 16.1011 21.8203 16.3954C21.8862 16.4633 21.952 16.5312 22.0179 16.5971C23.2568 17.8381 24.8827 18.6984 26.6053 19.0647C27.3071 19.2149 28.0274 19.2808 28.7416 19.2581C28.8424 19.254 28.9227 19.1697 28.9186 19.0688C28.9145 18.968 28.8301 18.8877 28.7292 18.8918L28.7334 18.8898Z" fill="#FDC5A7"/>
<path d="M19.0634 17.5827C18.7115 17.4942 18.3431 17.418 17.9891 17.344C16.6431 17.062 15.2498 16.7718 14.336 15.8107C14.266 15.7366 14.1487 15.7345 14.0767 15.8045C14.0026 15.8745 14.0005 15.9918 14.0705 16.0638C15.0646 17.1093 16.5155 17.4119 17.917 17.7041C18.269 17.7782 18.6333 17.8523 18.979 17.9387C21.4219 18.5459 23.6714 19.933 25.3137 21.8388C25.3405 21.8696 25.3775 21.8902 25.4146 21.8985C25.4681 21.9108 25.5278 21.8985 25.5731 21.8573C25.6492 21.7914 25.6595 21.6741 25.5916 21.598C23.8999 19.6325 21.5825 18.2063 19.0675 17.5806L19.0634 17.5827Z" fill="#FDC5A7"/>
<path d="M22.4488 22.7895L18.8307 20.2684C18.2153 19.8383 17.5773 19.3958 16.8776 19.0685C16.1202 18.7166 15.3052 18.5087 14.517 18.3071L11.7592 17.6053C11.6604 17.5785 11.5596 17.6402 11.5349 17.739C11.5102 17.8378 11.5698 17.9387 11.6686 17.9634L14.4265 18.6652C15.1982 18.8627 15.9947 19.0644 16.7212 19.404C17.3921 19.7168 18.0178 20.1511 18.6208 20.573L22.2389 23.0941C22.2595 23.1085 22.2821 23.1188 22.3068 23.1229C22.3768 23.1373 22.4529 23.1106 22.4961 23.0488C22.5538 22.9645 22.5332 22.8513 22.4509 22.7936L22.4488 22.7895Z" fill="#FDC5A7"/>
<path d="M14.252 21.7235C13.8074 21.5589 13.3423 21.4622 12.8936 21.3654C12.6796 21.3201 12.4697 21.2749 12.2577 21.2234C11.7576 21.0999 11.0352 20.8797 10.5269 20.3961C10.1235 20.0112 9.81065 19.3506 10.0267 18.7455C10.0617 18.6488 10.0103 18.5438 9.9156 18.5109C9.81887 18.4759 9.71392 18.5273 9.68099 18.622C9.44637 19.2806 9.68511 20.1018 10.2737 20.6636C10.8459 21.209 11.63 21.4498 12.1692 21.5815C12.3832 21.635 12.5993 21.6803 12.8154 21.7256C13.2538 21.8182 13.7024 21.9149 14.1223 22.0693C15.2666 22.4932 16.2401 23.4132 16.7278 24.5307C16.7525 24.5884 16.8019 24.6254 16.8575 24.6378C16.8945 24.646 16.9316 24.6419 16.9686 24.6254C17.0612 24.5842 17.1044 24.4772 17.0633 24.3826C16.5364 23.1745 15.4847 22.1784 14.2478 21.7215L14.252 21.7235Z" fill="#FDC5A7"/>
<path d="M9.70192 23.4238C9.48171 23.2344 9.23063 23.0945 8.98778 22.9586C8.89928 22.9092 8.80871 22.8598 8.72022 22.8063C7.5286 22.0984 6.63746 20.8676 6.33286 19.5155C6.31023 19.4167 6.21349 19.355 6.11265 19.3755C6.01386 19.3982 5.95212 19.497 5.9727 19.5957C6.29788 21.0446 7.25488 22.3638 8.53088 23.1233C8.62143 23.1768 8.71405 23.2282 8.80667 23.2797C9.04334 23.4114 9.26767 23.537 9.46113 23.7016C10.0189 24.1791 10.2638 24.9735 10.4613 25.6115C10.4819 25.6773 10.5354 25.7247 10.5992 25.737C10.628 25.7432 10.661 25.7432 10.6919 25.7329C10.7886 25.702 10.8442 25.5991 10.8133 25.5024C10.6013 24.8191 10.3399 23.9691 9.70192 23.4217V23.4238Z" fill="#FDC5A7"/>
<path d="M14.6275 9.23347C14.8641 10.102 15.247 10.8038 15.7656 11.3183C15.7923 11.343 15.8232 11.3595 15.8561 11.3677C15.9158 11.38 15.9796 11.3636 16.0249 11.3162C16.0969 11.2442 16.0949 11.1269 16.0249 11.0569C15.5536 10.5897 15.2017 9.94351 14.9835 9.1388C14.7859 8.41025 14.716 7.63847 14.6501 6.89345C14.5801 6.11756 14.5019 5.23671 14.7901 4.47111C14.9506 4.0492 15.2202 3.66434 15.4795 3.29389L16.9181 1.24611C16.9757 1.16379 16.9572 1.04854 16.8728 0.988853C16.7905 0.931227 16.6753 0.94975 16.6156 1.03413L15.177 3.08191C14.9033 3.47089 14.6192 3.87427 14.4443 4.34145C14.1253 5.18526 14.2097 6.11139 14.2817 6.92638C14.3496 7.68787 14.4217 8.47611 14.6275 9.23553V9.23347Z" fill="#FDC5A7"/>
<path d="M12.0081 6.13767C12.0636 6.36405 12.1171 6.5781 12.1377 6.79831C12.1871 7.35811 12.0122 7.90349 11.8269 8.47975C11.7837 8.61352 11.7405 8.7473 11.7014 8.88108C11.1766 10.6428 11.1725 12.5856 11.6891 14.3494C11.7096 14.4173 11.7631 14.4646 11.8269 14.477C11.8558 14.4831 11.8866 14.4831 11.9175 14.4728C12.0142 14.444 12.0719 14.3411 12.043 14.2444C11.545 12.5465 11.5491 10.6798 12.0533 8.98398C12.0924 8.85226 12.1336 8.72054 12.1768 8.58883C12.3641 8.00228 12.5596 7.39721 12.504 6.76332C12.4835 6.51635 12.4238 6.27762 12.3662 6.04712C12.3085 5.81661 12.255 5.60052 12.2365 5.37825C12.1892 4.8061 12.3991 4.21749 12.7963 3.80382C12.8663 3.72973 12.8642 3.61448 12.7922 3.54451C12.7201 3.47453 12.6028 3.47659 12.5329 3.54862C12.0616 4.03638 11.8146 4.73201 11.8702 5.40912C11.8907 5.6602 11.9504 5.90099 12.0081 6.13561V6.13767Z" fill="#FDC5A7"/>
<path d="M7.86489 15.4301C7.87724 15.5062 7.93693 15.5639 8.00896 15.5783C8.0316 15.5824 8.05423 15.5844 8.07893 15.5783C8.17977 15.5618 8.24564 15.4651 8.22917 15.3663C8.06453 14.4134 7.89577 13.4296 7.90606 12.4521C7.91635 11.3675 8.15302 10.4434 8.60785 9.70659C8.67165 9.60575 8.73957 9.5049 8.80543 9.40611C9.00918 9.10563 9.22116 8.79281 9.30966 8.4203C9.37758 8.13423 9.36522 7.84815 9.35287 7.57237C9.34876 7.49828 9.3467 7.42419 9.34464 7.3501C9.32818 6.60508 9.48459 5.85389 9.79536 5.17679C9.83858 5.08417 9.79742 4.97509 9.70481 4.93187C9.61219 4.88866 9.50311 4.92982 9.4599 5.02243C9.12443 5.74893 8.95772 6.55775 8.97624 7.35834C8.97624 7.43449 8.98242 7.51063 8.98448 7.58678C8.99683 7.85021 9.00711 8.09924 8.95155 8.33386C8.87746 8.64257 8.69429 8.91218 8.50083 9.19825C8.43085 9.30321 8.35883 9.40612 8.29297 9.51314C7.80315 10.3075 7.54794 11.2954 7.53559 12.4479C7.5253 13.4584 7.69819 14.4587 7.86489 15.428V15.4301Z" fill="#FDC5A7"/>
<path d="M5.43721 14.0471L5.4619 13.9586C5.54629 13.6623 5.64301 13.3268 5.51746 12.9996C5.43514 12.7876 5.28491 12.6394 5.13673 12.4953C5.06058 12.4213 4.98855 12.3513 4.93092 12.2751C4.73746 12.024 4.66131 11.6495 4.72511 11.2502C4.7848 10.8695 4.95356 10.5011 5.11615 10.1471L6.24809 7.67741C6.29131 7.58479 6.24809 7.47572 6.15753 7.4325C6.06492 7.39134 5.95584 7.4325 5.91468 7.52305L4.78274 9.99273C4.60987 10.3714 4.43081 10.7625 4.36289 11.1926C4.28263 11.6927 4.38348 12.1702 4.64074 12.5015C4.71483 12.5982 4.7992 12.6806 4.88153 12.7608C5.00501 12.8823 5.12232 12.9955 5.17583 13.1333C5.25609 13.3433 5.18612 13.5944 5.10997 13.8578L5.08321 13.9483C4.71276 15.2779 4.92887 16.7699 5.65742 17.941C5.68418 17.9842 5.72739 18.013 5.77472 18.0233C5.82206 18.0336 5.86734 18.0254 5.91056 17.9986C5.997 17.9451 6.02375 17.8319 5.97024 17.7455C5.29519 16.6609 5.09557 15.2779 5.43721 14.0471Z" fill="#FDC5A7"/>
<path d="M2.03318 12.5365C2.03936 12.4356 1.96116 12.3492 1.86031 12.343C1.75947 12.3368 1.67097 12.415 1.66685 12.5159C1.56189 14.3805 2.02908 16.2945 2.98196 17.9018C3.00872 17.9471 3.05398 17.978 3.10132 17.9883C3.14454 17.9986 3.19188 17.9903 3.23304 17.9656C3.31948 17.9142 3.34829 17.801 3.29684 17.7125C2.381 16.1669 1.93234 14.329 2.03318 12.5365Z" fill="#FDC5A7"/>
</g>
</svg>
