<svg width="187" height="56" viewBox="0 0 187 56" fill="none" xmlns="http://www.w3.org/2000/svg">
<g clip-path="url(#clip0_1_463)">
<mask id="mask0_1_463" style="mask-type:luminance" maskUnits="userSpaceOnUse" x="0" y="0" width="187" height="56">
<path d="M0 0H186.667V56H0V0Z" fill="white"/>
</mask>
<g mask="url(#mask0_1_463)">
<path d="M177.333 0H9.33333C4.17868 0 0 4.17868 0 9.33333V46.6667C0 51.8213 4.17868 56 9.33333 56H177.333C182.488 56 186.667 51.8213 186.667 46.6667V9.33333C186.667 4.17868 182.488 0 177.333 0Z" fill="#212121"/>
<path d="M29.1049 27.1938L14.3652 43.0138L14.3676 43.0232C14.5892 43.8754 15.0868 44.6303 15.7826 45.17C16.4785 45.7097 17.3335 46.0038 18.2141 46.0063C18.9491 46.0063 19.6409 45.8045 20.2336 45.4533L20.2802 45.423L36.8726 35.742L29.1049 27.1938Z" fill="#EB3131"/>
<path d="M44.0172 24.5023L44.002 24.493L36.8387 20.293L28.77 27.5543L36.8679 35.7431L43.9939 31.584C44.6306 31.2357 45.1615 30.7221 45.5307 30.0972C45.8999 29.4724 46.0936 28.7595 46.0915 28.0338C46.0934 27.3134 45.902 26.6057 45.5371 25.9845C45.1722 25.3633 44.6473 24.8514 44.0172 24.5023Z" fill="#F6B60B"/>
<path d="M14.364 12.992C14.2742 13.3233 14.2275 13.6687 14.2275 14.0292V41.9802C14.2275 42.3407 14.2742 42.686 14.364 43.0162L29.61 27.6033L14.364 12.9932V12.992Z" fill="#4285F4"/>
<path d="M29.2122 28L36.8411 20.2883L20.2686 10.5723C19.6486 10.1946 18.9365 9.99522 18.2106 9.99597C16.3707 9.99597 14.8156 11.263 14.3652 12.9826V12.9861L29.2122 28Z" fill="#34A853"/>
<path d="M66.0731 14.3418C66.0731 15.5143 65.7289 16.4488 65.0429 17.1453C64.2612 17.9737 63.2427 18.389 61.9921 18.389C60.7939 18.389 59.7719 17.9702 58.9354 17.1278C58.0966 16.2878 57.6777 15.246 57.6777 14.0012C57.6777 12.7575 58.0977 11.7157 58.9366 10.8757C59.7754 10.0357 60.7939 9.61566 61.9932 9.61566C62.5882 9.61566 63.1552 9.73233 63.6966 9.96566C64.2379 10.2002 64.6719 10.514 64.9962 10.906L64.2671 11.6433C63.7176 10.9783 62.9592 10.6447 61.9921 10.6447C61.1182 10.6447 60.3634 10.955 59.7229 11.578C59.0836 12.2022 58.7662 13.0072 58.7662 14.0023C58.7662 14.994 59.0836 15.8013 59.7229 16.4243C60.3634 17.0485 61.1182 17.3577 61.9921 17.3577C62.9219 17.3577 63.6942 17.045 64.3137 16.4185C64.7162 16.0125 64.9472 15.4443 65.0114 14.7187H61.9956V13.7095H66.0206C66.0532 13.9253 66.0731 14.1365 66.0731 14.3418ZM72.4559 10.8325H68.6736V13.496H72.0826V14.5052H68.6712V17.1687H72.4536V18.2023H67.6026V9.80233H72.4536V10.8325M76.9534 18.2023H75.8847V10.836H73.5631V9.80233H79.2716V10.836H76.9499L76.9534 18.2023ZM83.4074 18.2023V9.80233H84.4761V18.2023H83.4074ZM89.2069 18.2023H88.1394V10.836H85.8177V9.80233H91.5262V10.836H89.2046L89.2069 18.2023ZM97.0317 16.4103C97.6477 17.0403 98.3967 17.3553 99.2881 17.3553C100.177 17.3553 100.933 17.0427 101.546 16.4103C102.163 15.7803 102.47 14.9753 102.47 13.9988C102.47 13.0212 102.159 12.2162 101.546 11.5873C101.256 11.2817 100.905 11.0398 100.516 10.8771C100.128 10.7144 99.7094 10.6344 99.2881 10.6423C98.4002 10.6423 97.6477 10.955 97.0306 11.5873C96.4181 12.2173 96.1089 13.0223 96.1089 13.9988C96.1089 14.9765 96.4181 15.7815 97.0317 16.4103ZM102.337 17.115C101.52 17.9643 100.505 18.389 99.2881 18.389C98.0759 18.389 97.0597 17.9643 96.2431 17.1162C95.4276 16.2668 95.0192 15.2285 95.0192 14.0012C95.0192 12.7762 95.4276 11.7367 96.2442 10.8873C97.0609 10.0392 98.0759 9.61566 99.2892 9.61566C100.496 9.61566 101.508 10.0415 102.331 10.8932C103.15 11.7448 103.56 12.7808 103.56 14.0023C103.557 15.2273 103.151 16.2668 102.337 17.115ZM105.055 18.2V9.79999H106.355L110.39 16.3333H110.437L110.39 14.7152V9.80233H111.459V18.2023H110.345L106.121 11.3505H106.075L106.121 12.9687V18.2023L105.054 18.1988L105.055 18.2ZM148.47 42H151.052V24.5H148.47V42ZM171.739 30.8035L168.776 38.3892H168.686L165.612 30.8H162.828L167.441 41.4062L164.814 47.306H167.508L174.61 30.8035H171.739ZM157.086 40.0108C156.241 40.0108 155.061 39.5827 155.061 38.5233C155.061 37.1712 156.531 36.6532 157.798 36.6532C158.933 36.6532 159.468 36.9028 160.157 37.2388C159.959 38.8628 158.579 40.0108 157.086 40.0108ZM157.399 30.4208C155.528 30.4208 153.589 31.2538 152.788 33.1007L155.083 34.069C155.573 33.1007 156.487 32.788 157.442 32.788C158.779 32.788 160.137 33.5988 160.16 35.0385V35.2193C159.691 34.951 158.689 34.5427 157.465 34.5427C154.994 34.5427 152.479 35.9158 152.479 38.4825C152.479 40.824 154.504 42.3337 156.777 42.3337C158.513 42.3337 159.471 41.5473 160.073 40.6222H160.162V41.9743H162.657V35.2637C162.654 32.1522 160.36 30.4208 157.399 30.4208ZM141.434 32.9338H137.761V26.9348H141.434C143.365 26.9348 144.461 28.553 144.461 29.9343C144.461 31.2888 143.365 32.9338 141.434 32.9338ZM141.367 24.4965H135.177V41.9977H137.761V35.3663H141.367C144.233 35.3663 147.046 33.271 147.046 29.9308C147.046 26.5918 144.23 24.4965 141.367 24.4965ZM107.613 40.0167C105.83 40.0167 104.334 38.5058 104.334 36.4315C104.334 34.3327 105.827 32.7997 107.612 32.7997C109.375 32.7997 110.759 34.3327 110.759 36.4315C110.756 38.5035 109.374 40.0167 107.613 40.0167ZM110.579 31.7835H110.489C109.911 31.0835 108.794 30.4523 107.391 30.4523C104.447 30.4523 101.746 33.068 101.746 36.428C101.746 39.7682 104.447 42.3605 107.391 42.3605C108.796 42.3605 109.911 41.7282 110.489 41.0083H110.579V41.8658C110.579 44.1432 109.375 45.3635 107.434 45.3635C105.851 45.3635 104.869 44.2132 104.467 43.2448L102.215 44.1922C102.864 45.7695 104.58 47.7108 107.434 47.7108C110.467 47.7108 113.03 45.9072 113.03 41.5088V30.8187H110.577V31.7835H110.579ZM114.816 42.0012H117.404V24.5H114.816V42.0012ZM121.218 36.2262C121.151 33.9267 122.981 32.753 124.298 32.753C125.326 32.753 126.194 33.271 126.483 34.0165L121.218 36.2262ZM129.247 34.2428C128.755 32.9105 127.261 30.4523 124.206 30.4523C121.172 30.4523 118.651 32.8673 118.651 36.4047C118.651 39.7437 121.149 42.3605 124.495 42.3605C127.195 42.3605 128.755 40.6922 129.4 39.7203L127.392 38.3682C126.723 39.3598 125.809 40.0167 124.492 40.0167C123.174 40.0167 122.24 39.4077 121.638 38.2107L129.511 34.9183L129.247 34.2428ZM66.5187 32.2782V34.804H72.4944C72.3159 36.2238 71.8492 37.2622 71.1341 37.9855C70.2637 38.8663 68.9034 39.8347 66.5187 39.8347C62.8367 39.8347 59.9597 36.8352 59.9597 33.1147C59.9597 29.393 62.8367 26.3935 66.5187 26.3935C68.5044 26.3935 69.9534 27.1833 71.0244 28.1983L72.7872 26.4168C71.2939 24.9737 69.3082 23.8677 66.5187 23.8677C61.4764 23.8677 57.2402 28.0175 57.2402 33.1158C57.2402 38.2142 61.4764 42.364 66.5187 42.364C69.2394 42.364 71.2904 41.4622 72.8969 39.7705C74.5466 38.1022 75.0622 35.7548 75.0622 33.8613C75.0622 33.2768 75.0191 32.7355 74.9292 32.284H66.5176L66.5187 32.2782ZM81.8581 40.0167C80.0719 40.0167 78.5354 38.5268 78.5354 36.4082C78.5354 34.265 80.0754 32.7997 81.8581 32.7997C83.6407 32.7997 85.1796 34.265 85.1796 36.4082C85.1796 38.5268 83.6431 40.0167 81.8581 40.0167ZM81.8581 30.4523C78.6019 30.4523 75.9477 32.9548 75.9477 36.4047C75.9477 39.8323 78.6019 42.3605 81.8581 42.3605C85.1131 42.3605 87.7672 39.8347 87.7672 36.4047C87.7672 32.9548 85.1131 30.4523 81.8581 30.4523ZM94.7509 40.0167C92.9659 40.0167 91.4282 38.5268 91.4282 36.4082C91.4282 34.265 92.9682 32.7997 94.7509 32.7997C96.5336 32.7997 98.0736 34.265 98.0736 36.4082C98.0736 38.5268 96.5371 40.0167 94.7509 40.0167ZM94.7509 30.4523C91.4959 30.4523 88.8417 32.9548 88.8417 36.4047C88.8417 39.8323 91.4947 42.3605 94.7509 42.3605C98.0071 42.3605 100.661 39.8347 100.661 36.4047C100.661 32.9548 98.0071 30.4523 94.7509 30.4523Z" fill="white"/>
</g>
</g>
<defs>
<clipPath id="clip0_1_463">
<rect width="186.667" height="56" fill="white"/>
</clipPath>
</defs>
</svg>
