<svg width="24" height="24" viewBox="0 0 24 24" fill="none" xmlns="http://www.w3.org/2000/svg">
<g clip-path="url(#clip0_1_907)">
<path d="M10.9177 11.4622L1.09375 22.0066L1.09568 22.0124C1.39659 23.1574 2.43049 24 3.65921 24C4.14915 24 4.61016 23.8654 5.00559 23.6314L5.03645 23.6118L16.0949 17.1596L10.9177 11.4622Z" fill="#EB3131"/>
<path d="M20.849 9.66677L20.8394 9.66092L16.0653 6.86194L10.6875 11.7012L16.0846 17.1587L20.8336 14.387C21.6669 13.9326 22.2321 13.0451 22.2321 12.0211C22.2321 11.0048 21.6746 10.1232 20.849 9.66677Z" fill="#F6B60B"/>
<path d="M1.09066 1.99512C1.03086 2.21552 1 2.44568 1 2.6856V21.3149C1 21.5548 1.03086 21.785 1.09066 22.0054L11.2522 11.7321L1.09066 1.99512Z" fill="#4285F4"/>
<path d="M10.9891 11.999L16.0737 6.85943L5.02874 0.38376C4.62752 0.139947 4.1588 -0.000488281 3.65728 -0.000488281C2.43049 -0.000488281 1.39466 0.84408 1.09375 1.99097V1.99292L10.9891 11.999Z" fill="#34A853"/>
</g>
<defs>
<clipPath id="clip0_1_907">
<rect width="24" height="24" fill="white"/>
</clipPath>
</defs>
</svg>
