<svg width="278" height="321" viewBox="0 0 278 321" fill="none" xmlns="http://www.w3.org/2000/svg">
<g filter="url(#filter0_ddd_1_835)">
<circle cx="138" cy="128" r="102" fill="white"/>
</g>
<path d="M99.8748 125.527C102.179 123.607 104.015 122.011 105.383 120.739C106.751 119.443 107.891 118.099 108.803 116.707C109.715 115.315 110.171 113.947 110.171 112.603C110.171 111.379 109.883 110.419 109.307 109.723C108.731 109.027 107.843 108.679 106.643 108.679C105.443 108.679 104.519 109.087 103.871 109.903C103.223 110.695 102.887 111.787 102.863 113.179H97.9668C98.0628 110.299 98.9148 108.115 100.523 106.627C102.155 105.139 104.219 104.395 106.715 104.395C109.451 104.395 111.551 105.127 113.015 106.591C114.479 108.031 115.211 109.939 115.211 112.315C115.211 114.187 114.707 115.975 113.699 117.679C112.691 119.383 111.539 120.871 110.243 122.143C108.947 123.391 107.255 124.903 105.167 126.679H115.787V130.855H98.0028V127.111L99.8748 125.527ZM135.667 108.787L126.091 131.215H120.979L130.627 109.363H118.315V105.043H135.667V108.787ZM156.325 109.327H144.661V115.483C145.165 114.859 145.885 114.355 146.821 113.971C147.757 113.563 148.753 113.359 149.809 113.359C151.729 113.359 153.301 113.779 154.525 114.619C155.749 115.459 156.637 116.539 157.189 117.859C157.741 119.155 158.017 120.547 158.017 122.035C158.017 124.795 157.225 127.015 155.641 128.695C154.081 130.375 151.849 131.215 148.945 131.215C146.209 131.215 144.025 130.531 142.393 129.163C140.761 127.795 139.837 126.007 139.621 123.799H144.517C144.733 124.759 145.213 125.527 145.957 126.103C146.725 126.679 147.697 126.967 148.873 126.967C150.289 126.967 151.357 126.523 152.077 125.635C152.797 124.747 153.157 123.571 153.157 122.107C153.157 120.619 152.785 119.491 152.041 118.723C151.321 117.931 150.253 117.535 148.837 117.535C147.829 117.535 146.989 117.787 146.317 118.291C145.645 118.795 145.165 119.467 144.877 120.307H140.053V104.899H156.325V109.327ZM163.437 125.527C165.741 123.607 167.577 122.011 168.945 120.739C170.313 119.443 171.453 118.099 172.365 116.707C173.277 115.315 173.733 113.947 173.733 112.603C173.733 111.379 173.445 110.419 172.869 109.723C172.293 109.027 171.405 108.679 170.205 108.679C169.005 108.679 168.081 109.087 167.433 109.903C166.785 110.695 166.449 111.787 166.425 113.179H161.529C161.625 110.299 162.477 108.115 164.085 106.627C165.717 105.139 167.781 104.395 170.277 104.395C173.013 104.395 175.113 105.127 176.577 106.591C178.041 108.031 178.773 109.939 178.773 112.315C178.773 114.187 178.269 115.975 177.261 117.679C176.253 119.383 175.101 120.871 173.805 122.143C172.509 123.391 170.817 124.903 168.729 126.679H179.349V130.855H161.565V127.111L163.437 125.527Z" fill="#1F3455"/>
<path d="M99.9531 146.457V147.493H97.2931V156.215H96.0191V147.493H93.3451V146.457H99.9531ZM104.617 156.341C103.899 156.341 103.245 156.178 102.657 155.851C102.079 155.524 101.621 155.062 101.285 154.465C100.959 153.858 100.795 153.158 100.795 152.365C100.795 151.581 100.963 150.89 101.299 150.293C101.645 149.686 102.111 149.224 102.699 148.907C103.287 148.58 103.945 148.417 104.673 148.417C105.401 148.417 106.059 148.58 106.647 148.907C107.235 149.224 107.697 149.682 108.033 150.279C108.379 150.876 108.551 151.572 108.551 152.365C108.551 153.158 108.374 153.858 108.019 154.465C107.674 155.062 107.203 155.524 106.605 155.851C106.008 156.178 105.345 156.341 104.617 156.341ZM104.617 155.221C105.075 155.221 105.504 155.114 105.905 154.899C106.307 154.684 106.629 154.362 106.871 153.933C107.123 153.504 107.249 152.981 107.249 152.365C107.249 151.749 107.128 151.226 106.885 150.797C106.643 150.368 106.325 150.05 105.933 149.845C105.541 149.63 105.117 149.523 104.659 149.523C104.193 149.523 103.763 149.63 103.371 149.845C102.989 150.05 102.681 150.368 102.447 150.797C102.214 151.226 102.097 151.749 102.097 152.365C102.097 152.99 102.209 153.518 102.433 153.947C102.667 154.376 102.975 154.698 103.357 154.913C103.74 155.118 104.16 155.221 104.617 155.221ZM111.53 149.593V154.115C111.53 154.488 111.61 154.754 111.768 154.913C111.927 155.062 112.202 155.137 112.594 155.137H113.532V156.215H112.384C111.675 156.215 111.143 156.052 110.788 155.725C110.434 155.398 110.256 154.862 110.256 154.115V149.593H109.262V148.543H110.256V146.611H111.53V148.543H113.532V149.593H111.53ZM114.35 152.351C114.35 151.567 114.509 150.881 114.826 150.293C115.143 149.696 115.577 149.234 116.128 148.907C116.688 148.58 117.309 148.417 117.99 148.417C118.662 148.417 119.245 148.562 119.74 148.851C120.235 149.14 120.603 149.504 120.846 149.943V148.543H122.134V156.215H120.846V154.787C120.594 155.235 120.216 155.608 119.712 155.907C119.217 156.196 118.639 156.341 117.976 156.341C117.295 156.341 116.679 156.173 116.128 155.837C115.577 155.501 115.143 155.03 114.826 154.423C114.509 153.816 114.35 153.126 114.35 152.351ZM120.846 152.365C120.846 151.786 120.729 151.282 120.496 150.853C120.263 150.424 119.945 150.097 119.544 149.873C119.152 149.64 118.718 149.523 118.242 149.523C117.766 149.523 117.332 149.635 116.94 149.859C116.548 150.083 116.235 150.41 116.002 150.839C115.769 151.268 115.652 151.772 115.652 152.351C115.652 152.939 115.769 153.452 116.002 153.891C116.235 154.32 116.548 154.652 116.94 154.885C117.332 155.109 117.766 155.221 118.242 155.221C118.718 155.221 119.152 155.109 119.544 154.885C119.945 154.652 120.263 154.32 120.496 153.891C120.729 153.452 120.846 152.944 120.846 152.365ZM125.311 145.855V156.215H124.037V145.855H125.311ZM130.239 152.365C130.239 151.572 130.397 150.881 130.715 150.293C131.032 149.696 131.471 149.234 132.031 148.907C132.6 148.58 133.249 148.417 133.977 148.417C134.919 148.417 135.694 148.646 136.301 149.103C136.917 149.56 137.323 150.195 137.519 151.007H136.147C136.016 150.54 135.759 150.172 135.377 149.901C135.003 149.63 134.537 149.495 133.977 149.495C133.249 149.495 132.661 149.747 132.213 150.251C131.765 150.746 131.541 151.45 131.541 152.365C131.541 153.289 131.765 154.003 132.213 154.507C132.661 155.011 133.249 155.263 133.977 155.263C134.537 155.263 135.003 155.132 135.377 154.871C135.75 154.61 136.007 154.236 136.147 153.751H137.519C137.313 154.535 136.903 155.165 136.287 155.641C135.671 156.108 134.901 156.341 133.977 156.341C133.249 156.341 132.6 156.178 132.031 155.851C131.471 155.524 131.032 155.062 130.715 154.465C130.397 153.868 130.239 153.168 130.239 152.365ZM138.493 152.351C138.493 151.567 138.651 150.881 138.969 150.293C139.286 149.696 139.72 149.234 140.271 148.907C140.831 148.58 141.451 148.417 142.133 148.417C142.805 148.417 143.388 148.562 143.883 148.851C144.377 149.14 144.746 149.504 144.989 149.943V148.543H146.277V156.215H144.989V154.787C144.737 155.235 144.359 155.608 143.855 155.907C143.36 156.196 142.781 156.341 142.119 156.341C141.437 156.341 140.821 156.173 140.271 155.837C139.72 155.501 139.286 155.03 138.969 154.423C138.651 153.816 138.493 153.126 138.493 152.351ZM144.989 152.365C144.989 151.786 144.872 151.282 144.639 150.853C144.405 150.424 144.088 150.097 143.687 149.873C143.295 149.64 142.861 149.523 142.385 149.523C141.909 149.523 141.475 149.635 141.083 149.859C140.691 150.083 140.378 150.41 140.145 150.839C139.911 151.268 139.795 151.772 139.795 152.351C139.795 152.939 139.911 153.452 140.145 153.891C140.378 154.32 140.691 154.652 141.083 154.885C141.475 155.109 141.909 155.221 142.385 155.221C142.861 155.221 143.295 155.109 143.687 154.885C144.088 154.652 144.405 154.32 144.639 153.891C144.872 153.452 144.989 152.944 144.989 152.365ZM149.454 145.855V156.215H148.18V145.855H149.454ZM154.721 156.341C154.002 156.341 153.349 156.178 152.761 155.851C152.182 155.524 151.725 155.062 151.389 154.465C151.062 153.858 150.899 153.158 150.899 152.365C150.899 151.581 151.067 150.89 151.403 150.293C151.748 149.686 152.215 149.224 152.803 148.907C153.391 148.58 154.049 148.417 154.777 148.417C155.505 148.417 156.163 148.58 156.751 148.907C157.339 149.224 157.801 149.682 158.137 150.279C158.482 150.876 158.655 151.572 158.655 152.365C158.655 153.158 158.478 153.858 158.123 154.465C157.778 155.062 157.306 155.524 156.709 155.851C156.112 156.178 155.449 156.341 154.721 156.341ZM154.721 155.221C155.178 155.221 155.608 155.114 156.009 154.899C156.41 154.684 156.732 154.362 156.975 153.933C157.227 153.504 157.353 152.981 157.353 152.365C157.353 151.749 157.232 151.226 156.989 150.797C156.746 150.368 156.429 150.05 156.037 149.845C155.645 149.63 155.22 149.523 154.763 149.523C154.296 149.523 153.867 149.63 153.475 149.845C153.092 150.05 152.784 150.368 152.551 150.797C152.318 151.226 152.201 151.749 152.201 152.365C152.201 152.99 152.313 153.518 152.537 153.947C152.77 154.376 153.078 154.698 153.461 154.913C153.844 155.118 154.264 155.221 154.721 155.221ZM161.354 149.789C161.578 149.35 161.895 149.01 162.306 148.767C162.726 148.524 163.235 148.403 163.832 148.403V149.719H163.496C162.068 149.719 161.354 150.494 161.354 152.043V156.215H160.08V148.543H161.354V149.789ZM165.711 147.297C165.468 147.297 165.263 147.213 165.095 147.045C164.927 146.877 164.843 146.672 164.843 146.429C164.843 146.186 164.927 145.981 165.095 145.813C165.263 145.645 165.468 145.561 165.711 145.561C165.944 145.561 166.14 145.645 166.299 145.813C166.467 145.981 166.551 146.186 166.551 146.429C166.551 146.672 166.467 146.877 166.299 147.045C166.14 147.213 165.944 147.297 165.711 147.297ZM166.327 148.543V156.215H165.053V148.543H166.327ZM175.248 152.085C175.248 152.328 175.234 152.584 175.206 152.855H169.074C169.121 153.611 169.377 154.204 169.844 154.633C170.32 155.053 170.894 155.263 171.566 155.263C172.117 155.263 172.574 155.137 172.938 154.885C173.311 154.624 173.573 154.278 173.722 153.849H175.094C174.889 154.586 174.478 155.188 173.862 155.655C173.246 156.112 172.481 156.341 171.566 156.341C170.838 156.341 170.185 156.178 169.606 155.851C169.037 155.524 168.589 155.062 168.262 154.465C167.935 153.858 167.772 153.158 167.772 152.365C167.772 151.572 167.931 150.876 168.248 150.279C168.565 149.682 169.009 149.224 169.578 148.907C170.157 148.58 170.819 148.417 171.566 148.417C172.294 148.417 172.938 148.576 173.498 148.893C174.058 149.21 174.487 149.649 174.786 150.209C175.094 150.76 175.248 151.385 175.248 152.085ZM173.932 151.819C173.932 151.334 173.825 150.918 173.61 150.573C173.395 150.218 173.101 149.952 172.728 149.775C172.364 149.588 171.958 149.495 171.51 149.495C170.866 149.495 170.315 149.7 169.858 150.111C169.41 150.522 169.153 151.091 169.088 151.819H173.932ZM179.396 156.341C178.808 156.341 178.28 156.243 177.814 156.047C177.347 155.842 176.978 155.562 176.708 155.207C176.437 154.843 176.288 154.428 176.26 153.961H177.576C177.613 154.344 177.79 154.656 178.108 154.899C178.434 155.142 178.859 155.263 179.382 155.263C179.867 155.263 180.25 155.156 180.53 154.941C180.81 154.726 180.95 154.456 180.95 154.129C180.95 153.793 180.8 153.546 180.502 153.387C180.203 153.219 179.741 153.056 179.116 152.897C178.546 152.748 178.08 152.598 177.716 152.449C177.361 152.29 177.053 152.062 176.792 151.763C176.54 151.455 176.414 151.054 176.414 150.559C176.414 150.167 176.53 149.808 176.764 149.481C176.997 149.154 177.328 148.898 177.758 148.711C178.187 148.515 178.677 148.417 179.228 148.417C180.077 148.417 180.763 148.632 181.286 149.061C181.808 149.49 182.088 150.078 182.126 150.825H180.852C180.824 150.424 180.66 150.102 180.362 149.859C180.072 149.616 179.68 149.495 179.186 149.495C178.728 149.495 178.364 149.593 178.094 149.789C177.823 149.985 177.688 150.242 177.688 150.559C177.688 150.811 177.767 151.021 177.926 151.189C178.094 151.348 178.299 151.478 178.542 151.581C178.794 151.674 179.139 151.782 179.578 151.903C180.128 152.052 180.576 152.202 180.922 152.351C181.267 152.491 181.561 152.706 181.804 152.995C182.056 153.284 182.186 153.662 182.196 154.129C182.196 154.549 182.079 154.927 181.846 155.263C181.612 155.599 181.281 155.865 180.852 156.061C180.432 156.248 179.946 156.341 179.396 156.341Z" fill="#5D6B83"/>
<g clip-path="url(#clip0_1_835)">
<path d="M204.906 58.4556C214.227 67.2929 221.691 77.9017 226.86 89.6604C232.028 101.419 234.798 114.091 235.006 126.934C235.214 139.777 232.857 152.532 228.072 164.452C223.288 176.372 216.172 187.218 207.143 196.352C198.113 205.487 187.351 212.728 175.487 217.65C163.623 222.572 150.896 225.077 138.052 225.018C125.207 224.958 112.504 222.335 100.686 217.303C88.8684 212.271 78.1739 204.931 69.2293 195.713L88.6248 176.893C95.0649 183.53 102.765 188.815 111.274 192.438C119.783 196.061 128.929 197.949 138.177 197.992C147.425 198.035 156.588 196.232 165.13 192.688C173.672 189.144 181.421 183.931 187.922 177.353C194.424 170.776 199.547 162.968 202.992 154.385C206.437 145.803 208.134 136.619 207.984 127.372C207.834 118.125 205.84 109.002 202.119 100.535C198.397 92.069 193.024 84.4306 186.312 78.0678L204.906 58.4556Z" fill="#73B5F0"/>
<path d="M138.499 31.9797C119.409 31.9797 100.748 37.6404 84.8758 48.2461C69.0033 58.8518 56.6322 73.9261 49.3268 91.5627C42.0215 109.199 40.1101 128.606 43.8343 147.329C47.5585 166.052 56.7511 183.25 70.2496 196.749L89.3595 177.639C79.6406 167.92 73.0219 155.537 70.3405 142.057C67.659 128.576 69.0352 114.603 74.2951 101.905C79.5549 89.2065 88.4621 78.3531 99.8904 70.717C111.319 63.0809 124.755 59.0051 138.499 59.0051L138.499 31.9797Z" fill="#9989DC"/>
<path d="M138.5 31.9801C161.048 31.9801 182.884 39.8742 200.22 54.2926C217.555 68.711 229.296 88.7436 233.404 110.914L206.831 115.838C203.873 99.8753 195.42 85.4518 182.938 75.0706C170.457 64.6893 154.735 59.0055 138.5 59.0055V31.9801Z" fill="#FAA151"/>
</g>
<g filter="url(#filter1_d_1_835)">
<path d="M193 60.2148C193 51.3783 200.163 44.2148 209 44.2148H235C243.837 44.2148 251 51.3783 251 60.2148C251 69.0514 243.837 76.2148 235 76.2148H209C200.163 76.2148 193 69.0514 193 60.2148Z" fill="white"/>
</g>
<path d="M208.197 63.0448C209.093 62.2702 209.797 61.6355 210.311 61.1408C210.833 60.6368 211.267 60.1142 211.613 59.5728C211.958 59.0315 212.131 58.4902 212.131 57.9488C212.131 57.3888 211.995 56.9502 211.725 56.6328C211.463 56.3155 211.048 56.1568 210.479 56.1568C209.928 56.1568 209.499 56.3342 209.191 56.6888C208.892 57.0342 208.733 57.5008 208.715 58.0888H207.175C207.203 57.0248 207.52 56.2128 208.127 55.6528C208.743 55.0835 209.522 54.7988 210.465 54.7988C211.482 54.7988 212.275 55.0788 212.845 55.6388C213.423 56.1988 213.713 56.9455 213.713 57.8788C213.713 58.5508 213.54 59.1995 213.195 59.8248C212.859 60.4408 212.453 60.9962 211.977 61.4908C211.51 61.9762 210.913 62.5408 210.185 63.1848L209.555 63.7448H213.993V65.0748H207.189V63.9128L208.197 63.0448ZM215.145 59.9788C215.145 58.3642 215.415 57.1042 215.957 56.1988C216.507 55.2842 217.45 54.8268 218.785 54.8268C220.119 54.8268 221.057 55.2842 221.599 56.1988C222.149 57.1042 222.425 58.3642 222.425 59.9788C222.425 61.6122 222.149 62.8908 221.599 63.8148C221.057 64.7295 220.119 65.1868 218.785 65.1868C217.45 65.1868 216.507 64.7295 215.957 63.8148C215.415 62.8908 215.145 61.6122 215.145 59.9788ZM220.857 59.9788C220.857 59.2228 220.805 58.5835 220.703 58.0608C220.609 57.5382 220.413 57.1135 220.115 56.7868C219.816 56.4508 219.373 56.2828 218.785 56.2828C218.197 56.2828 217.753 56.4508 217.455 56.7868C217.156 57.1135 216.955 57.5382 216.853 58.0608C216.759 58.5835 216.713 59.2228 216.713 59.9788C216.713 60.7628 216.759 61.4208 216.853 61.9528C216.946 62.4848 217.142 62.9142 217.441 63.2408C217.749 63.5675 218.197 63.7308 218.785 63.7308C219.373 63.7308 219.816 63.5675 220.115 63.2408C220.423 62.9142 220.623 62.4848 220.717 61.9528C220.81 61.4208 220.857 60.7628 220.857 59.9788ZM226.998 57.4728C226.998 56.7915 227.194 56.2595 227.586 55.8768C227.987 55.4848 228.501 55.2888 229.126 55.2888C229.751 55.2888 230.26 55.4848 230.652 55.8768C231.053 56.2595 231.254 56.7915 231.254 57.4728C231.254 58.1542 231.053 58.6908 230.652 59.0828C230.26 59.4748 229.751 59.6708 229.126 59.6708C228.501 59.6708 227.987 59.4748 227.586 59.0828C227.194 58.6908 226.998 58.1542 226.998 57.4728ZM235.538 55.4708L229.952 65.2148H228.384L233.97 55.4708H235.538ZM229.126 56.2548C228.538 56.2548 228.244 56.6608 228.244 57.4728C228.244 58.2942 228.538 58.7048 229.126 58.7048C229.406 58.7048 229.621 58.6068 229.77 58.4108C229.929 58.2055 230.008 57.8928 230.008 57.4728C230.008 56.6608 229.714 56.2548 229.126 56.2548ZM232.696 63.1988C232.696 62.5175 232.892 61.9855 233.284 61.6028C233.685 61.2108 234.199 61.0148 234.824 61.0148C235.44 61.0148 235.944 61.2108 236.336 61.6028C236.737 61.9855 236.938 62.5175 236.938 63.1988C236.938 63.8802 236.737 64.4168 236.336 64.8088C235.944 65.2008 235.44 65.3968 234.824 65.3968C234.199 65.3968 233.685 65.2008 233.284 64.8088C232.892 64.4168 232.696 63.8802 232.696 63.1988ZM234.81 61.9808C234.222 61.9808 233.928 62.3868 233.928 63.1988C233.928 64.0108 234.222 64.4168 234.81 64.4168C235.398 64.4168 235.692 64.0108 235.692 63.1988C235.692 62.3868 235.398 61.9808 234.81 61.9808Z" fill="#1F3455"/>
<g filter="url(#filter2_d_1_835)">
<path d="M181 207.215C181 198.378 188.163 191.215 197 191.215H223C231.837 191.215 239 198.378 239 207.215C239 216.051 231.837 223.215 223 223.215H197C188.163 223.215 181 216.051 181 207.215Z" fill="white"/>
</g>
<path d="M194.64 210.087V208.883L199.344 202.135H201.276V208.701H202.578V210.087H201.276V212.215H199.708V210.087H194.64ZM199.778 203.759L196.474 208.701H199.778V203.759ZM210.231 203.381H205.541V206.167C205.737 205.906 206.026 205.686 206.409 205.509C206.801 205.332 207.216 205.243 207.655 205.243C208.439 205.243 209.073 205.411 209.559 205.747C210.053 206.083 210.403 206.508 210.609 207.021C210.823 207.534 210.931 208.076 210.931 208.645C210.931 209.336 210.795 209.952 210.525 210.493C210.263 211.025 209.867 211.445 209.335 211.753C208.812 212.061 208.168 212.215 207.403 212.215C206.385 212.215 205.569 211.963 204.953 211.459C204.337 210.955 203.968 210.288 203.847 209.457H205.401C205.503 209.896 205.732 210.246 206.087 210.507C206.441 210.759 206.885 210.885 207.417 210.885C208.079 210.885 208.574 210.684 208.901 210.283C209.237 209.882 209.405 209.35 209.405 208.687C209.405 208.015 209.237 207.502 208.901 207.147C208.565 206.783 208.07 206.601 207.417 206.601C206.959 206.601 206.572 206.718 206.255 206.951C205.947 207.175 205.723 207.483 205.583 207.875H204.071V201.981H210.231V203.381ZM215.477 204.473C215.477 203.792 215.673 203.26 216.065 202.877C216.466 202.485 216.979 202.289 217.605 202.289C218.23 202.289 218.739 202.485 219.131 202.877C219.532 203.26 219.733 203.792 219.733 204.473C219.733 205.154 219.532 205.691 219.131 206.083C218.739 206.475 218.23 206.671 217.605 206.671C216.979 206.671 216.466 206.475 216.065 206.083C215.673 205.691 215.477 205.154 215.477 204.473ZM224.017 202.471L218.431 212.215H216.863L222.449 202.471H224.017ZM217.605 203.255C217.017 203.255 216.723 203.661 216.723 204.473C216.723 205.294 217.017 205.705 217.605 205.705C217.885 205.705 218.099 205.607 218.249 205.411C218.407 205.206 218.487 204.893 218.487 204.473C218.487 203.661 218.193 203.255 217.605 203.255ZM221.175 210.199C221.175 209.518 221.371 208.986 221.763 208.603C222.164 208.211 222.677 208.015 223.303 208.015C223.919 208.015 224.423 208.211 224.815 208.603C225.216 208.986 225.417 209.518 225.417 210.199C225.417 210.88 225.216 211.417 224.815 211.809C224.423 212.201 223.919 212.397 223.303 212.397C222.677 212.397 222.164 212.201 221.763 211.809C221.371 211.417 221.175 210.88 221.175 210.199ZM223.289 208.981C222.701 208.981 222.407 209.387 222.407 210.199C222.407 211.011 222.701 211.417 223.289 211.417C223.877 211.417 224.171 211.011 224.171 210.199C224.171 209.387 223.877 208.981 223.289 208.981Z" fill="#1F3455"/>
<g filter="url(#filter3_d_1_835)">
<path d="M6 103.215C6 94.3783 13.1634 87.2148 22 87.2148H44C52.8366 87.2148 60 94.3783 60 103.215C60 112.051 52.8366 119.215 44 119.215H22C13.1634 119.215 6 112.051 6 103.215Z" fill="white"/>
</g>
<path d="M19.2691 101.078C19.3211 100.272 19.6288 99.6435 20.1921 99.1928C20.7641 98.7422 21.4921 98.5168 22.3761 98.5168C22.9828 98.5168 23.5071 98.6252 23.9491 98.8418C24.3911 99.0585 24.7248 99.3532 24.9501 99.7258C25.1755 100.099 25.2881 100.519 25.2881 100.987C25.2881 101.524 25.1451 101.984 24.8591 102.365C24.5731 102.746 24.2308 103.002 23.8321 103.132V103.184C24.3435 103.34 24.7421 103.626 25.0281 104.042C25.3141 104.449 25.4571 104.974 25.4571 105.615C25.4571 106.126 25.3401 106.581 25.1061 106.98C24.8721 107.379 24.5255 107.695 24.0661 107.929C23.6068 108.154 23.0565 108.267 22.4151 108.267C21.4791 108.267 20.7078 108.029 20.1011 107.552C19.5031 107.067 19.1825 106.373 19.1391 105.472H20.5691C20.6038 105.931 20.7815 106.308 21.1021 106.603C21.4228 106.889 21.8561 107.032 22.4021 107.032C22.9308 107.032 23.3381 106.889 23.6241 106.603C23.9101 106.308 24.0531 105.931 24.0531 105.472C24.0531 104.865 23.8581 104.436 23.4681 104.185C23.0868 103.925 22.4975 103.795 21.7001 103.795H21.3621V102.573H21.7131C22.4151 102.564 22.9481 102.447 23.3121 102.222C23.6848 101.997 23.8711 101.641 23.8711 101.156C23.8711 100.74 23.7368 100.411 23.4681 100.168C23.1995 99.9165 22.8181 99.7908 22.3241 99.7908C21.8388 99.7908 21.4618 99.9165 21.1931 100.168C20.9245 100.411 20.7641 100.714 20.7121 101.078H19.2691ZM32.8739 100.012H28.5189V102.599C28.7009 102.356 28.9696 102.153 29.3249 101.988C29.6889 101.823 30.0746 101.741 30.4819 101.741C31.2099 101.741 31.7992 101.897 32.2499 102.209C32.7092 102.521 33.0342 102.915 33.2249 103.392C33.4242 103.869 33.5239 104.371 33.5239 104.9C33.5239 105.541 33.3982 106.113 33.1469 106.616C32.9042 107.11 32.5359 107.5 32.0419 107.786C31.5566 108.072 30.9586 108.215 30.2479 108.215C29.3032 108.215 28.5449 107.981 27.9729 107.513C27.4009 107.045 27.0586 106.425 26.9459 105.654H28.3889C28.4842 106.061 28.6966 106.386 29.0259 106.629C29.3552 106.863 29.7669 106.98 30.2609 106.98C30.8762 106.98 31.3356 106.794 31.6389 106.421C31.9509 106.048 32.1069 105.554 32.1069 104.939C32.1069 104.315 31.9509 103.838 31.6389 103.509C31.3269 103.171 30.8676 103.002 30.2609 103.002C29.8362 103.002 29.4766 103.11 29.1819 103.327C28.8959 103.535 28.6879 103.821 28.5579 104.185H27.1539V98.7118H32.8739V100.012ZM37.7096 101.026C37.7096 100.393 37.8916 99.8992 38.2556 99.5438C38.6282 99.1798 39.1049 98.9978 39.6856 98.9978C40.2662 98.9978 40.7386 99.1798 41.1026 99.5438C41.4752 99.8992 41.6616 100.393 41.6616 101.026C41.6616 101.659 41.4752 102.157 41.1026 102.521C40.7386 102.885 40.2662 103.067 39.6856 103.067C39.1049 103.067 38.6282 102.885 38.2556 102.521C37.8916 102.157 37.7096 101.659 37.7096 101.026ZM45.6396 99.1668L40.4526 108.215H38.9966L44.1836 99.1668H45.6396ZM39.6856 99.8948C39.1396 99.8948 38.8666 100.272 38.8666 101.026C38.8666 101.789 39.1396 102.17 39.6856 102.17C39.9456 102.17 40.1449 102.079 40.2836 101.897C40.4309 101.706 40.5046 101.416 40.5046 101.026C40.5046 100.272 40.2316 99.8948 39.6856 99.8948ZM43.0006 106.343C43.0006 105.71 43.1826 105.216 43.5466 104.861C43.9192 104.497 44.3959 104.315 44.9766 104.315C45.5486 104.315 46.0166 104.497 46.3806 104.861C46.7532 105.216 46.9396 105.71 46.9396 106.343C46.9396 106.976 46.7532 107.474 46.3806 107.838C46.0166 108.202 45.5486 108.384 44.9766 108.384C44.3959 108.384 43.9192 108.202 43.5466 107.838C43.1826 107.474 43.0006 106.976 43.0006 106.343ZM44.9636 105.212C44.4176 105.212 44.1446 105.589 44.1446 106.343C44.1446 107.097 44.4176 107.474 44.9636 107.474C45.5096 107.474 45.7826 107.097 45.7826 106.343C45.7826 105.589 45.5096 105.212 44.9636 105.212Z" fill="#1F3455"/>
<defs>
<filter id="filter0_ddd_1_835" x="4" y="0" width="274" height="321" filterUnits="userSpaceOnUse" color-interpolation-filters="sRGB">
<feFlood flood-opacity="0" result="BackgroundImageFix"/>
<feColorMatrix in="SourceAlpha" type="matrix" values="0 0 0 0 0 0 0 0 0 0 0 0 0 0 0 0 0 0 127 0" result="hardAlpha"/>
<feOffset dy="6"/>
<feGaussianBlur stdDeviation="16"/>
<feColorMatrix type="matrix" values="0 0 0 0 0 0 0 0 0 0 0 0 0 0 0 0 0 0 0.08 0"/>
<feBlend mode="normal" in2="BackgroundImageFix" result="effect1_dropShadow_1_835"/>
<feColorMatrix in="SourceAlpha" type="matrix" values="0 0 0 0 0 0 0 0 0 0 0 0 0 0 0 0 0 0 127 0" result="hardAlpha"/>
<feOffset dx="4" dy="57"/>
<feGaussianBlur stdDeviation="17"/>
<feColorMatrix type="matrix" values="0 0 0 0 0 0 0 0 0 0 0 0 0 0 0 0 0 0 0.05 0"/>
<feBlend mode="normal" in2="effect1_dropShadow_1_835" result="effect2_dropShadow_1_835"/>
<feColorMatrix in="SourceAlpha" type="matrix" values="0 0 0 0 0 0 0 0 0 0 0 0 0 0 0 0 0 0 127 0" result="hardAlpha"/>
<feOffset dx="-4" dy="1"/>
<feGaussianBlur stdDeviation="12"/>
<feComposite in2="hardAlpha" operator="out"/>
<feColorMatrix type="matrix" values="0 0 0 0 0 0 0 0 0 0 0 0 0 0 0 0 0 0 0.05 0"/>
<feBlend mode="normal" in2="effect2_dropShadow_1_835" result="effect3_dropShadow_1_835"/>
<feBlend mode="normal" in="SourceGraphic" in2="effect3_dropShadow_1_835" result="shape"/>
</filter>
<filter id="filter1_d_1_835" x="187" y="40.2148" width="70" height="44" filterUnits="userSpaceOnUse" color-interpolation-filters="sRGB">
<feFlood flood-opacity="0" result="BackgroundImageFix"/>
<feColorMatrix in="SourceAlpha" type="matrix" values="0 0 0 0 0 0 0 0 0 0 0 0 0 0 0 0 0 0 127 0" result="hardAlpha"/>
<feOffset dy="2"/>
<feGaussianBlur stdDeviation="3"/>
<feComposite in2="hardAlpha" operator="out"/>
<feColorMatrix type="matrix" values="0 0 0 0 0.137255 0 0 0 0 0.141176 0 0 0 0 0.235294 0 0 0 0.14 0"/>
<feBlend mode="normal" in2="BackgroundImageFix" result="effect1_dropShadow_1_835"/>
<feBlend mode="normal" in="SourceGraphic" in2="effect1_dropShadow_1_835" result="shape"/>
</filter>
<filter id="filter2_d_1_835" x="175" y="187.215" width="70" height="44" filterUnits="userSpaceOnUse" color-interpolation-filters="sRGB">
<feFlood flood-opacity="0" result="BackgroundImageFix"/>
<feColorMatrix in="SourceAlpha" type="matrix" values="0 0 0 0 0 0 0 0 0 0 0 0 0 0 0 0 0 0 127 0" result="hardAlpha"/>
<feOffset dy="2"/>
<feGaussianBlur stdDeviation="3"/>
<feComposite in2="hardAlpha" operator="out"/>
<feColorMatrix type="matrix" values="0 0 0 0 0.137255 0 0 0 0 0.141176 0 0 0 0 0.235294 0 0 0 0.14 0"/>
<feBlend mode="normal" in2="BackgroundImageFix" result="effect1_dropShadow_1_835"/>
<feBlend mode="normal" in="SourceGraphic" in2="effect1_dropShadow_1_835" result="shape"/>
</filter>
<filter id="filter3_d_1_835" x="0" y="83.2148" width="66" height="44" filterUnits="userSpaceOnUse" color-interpolation-filters="sRGB">
<feFlood flood-opacity="0" result="BackgroundImageFix"/>
<feColorMatrix in="SourceAlpha" type="matrix" values="0 0 0 0 0 0 0 0 0 0 0 0 0 0 0 0 0 0 127 0" result="hardAlpha"/>
<feOffset dy="2"/>
<feGaussianBlur stdDeviation="3"/>
<feComposite in2="hardAlpha" operator="out"/>
<feColorMatrix type="matrix" values="0 0 0 0 0.137255 0 0 0 0 0.141176 0 0 0 0 0.235294 0 0 0 0.14 0"/>
<feBlend mode="normal" in2="BackgroundImageFix" result="effect1_dropShadow_1_835"/>
<feBlend mode="normal" in="SourceGraphic" in2="effect1_dropShadow_1_835" result="shape"/>
</filter>
<clipPath id="clip0_1_835">
<rect width="200" height="200" fill="white" transform="translate(38 28)"/>
</clipPath>
</defs>
</svg>
