<svg width="38" height="97" viewBox="0 0 38 97" fill="none" xmlns="http://www.w3.org/2000/svg">
<path d="M14.6561 13.2889C16.4483 13.9328 18.0086 15.3654 19.0843 16.6278C19.6112 17.2658 20.0433 17.8498 20.3091 18.2839C20.5894 18.7236 20.7345 18.9884 20.7345 18.9884C20.7345 18.9884 19.9438 19.2931 18.7384 19.3819C17.5366 19.4787 15.9184 19.3772 14.2549 18.6571C12.5931 17.9243 11.1316 16.7708 10.0672 15.8111C9.80044 15.5713 9.55766 15.3432 9.34806 15.1333C9.13325 14.9227 8.94196 14.7468 8.79026 14.5911C8.48859 14.2741 8.32031 14.0788 8.32031 14.0788C8.32031 14.0788 9.00482 13.5916 10.1397 13.227C10.7062 13.0474 11.3924 12.8935 12.1581 12.8781C12.9102 12.8635 13.7733 12.9632 14.6561 13.2889Z" fill="#2A2B2E"/>
<path d="M22.1383 26.9781C23.8416 28.2059 25.1119 30.1797 25.8803 31.8531C26.0718 32.2669 26.2342 32.665 26.3772 33.0236C26.5126 33.3825 26.615 33.7091 26.7021 33.9816C26.8721 34.5278 26.9533 34.8547 26.9533 34.8547C26.9533 34.8547 26.0206 34.9435 24.7058 34.6913C24.0475 34.5656 23.3004 34.3501 22.5231 34.0185C21.7275 33.6918 20.9338 33.2238 20.1402 32.6032C18.5828 31.3435 17.3621 29.6528 16.4959 28.2841C16.0735 27.5986 15.7186 26.9925 15.4857 26.5527C15.2613 26.109 15.1309 25.8442 15.1309 25.8442C15.1309 25.8442 15.3504 25.7727 15.7369 25.6886C16.1247 25.6091 16.6736 25.5233 17.3321 25.5126C17.9874 25.498 18.7558 25.5599 19.5844 25.7727C20.4109 25.9833 21.2704 26.3662 22.1383 26.9781Z" fill="#2A2B2E"/>
<path d="M25.8212 42.0989C27.2635 43.8758 28.0059 46.3359 28.235 48.3206C28.2929 48.8202 28.3471 49.2882 28.3635 49.7057C28.3704 50.1321 28.3704 50.5053 28.3655 50.8173C28.3568 51.4439 28.3239 51.8171 28.3239 51.8171C28.3239 51.8171 28.0764 51.758 27.6656 51.6043C27.2548 51.4536 26.6844 51.2108 26.0474 50.8522C25.4084 50.5003 24.7007 50.0306 24.0144 49.4359C23.3069 48.8395 22.5954 48.1194 22.0027 47.2466C20.7703 45.5239 20.0133 43.5169 19.4904 41.8784C19.3694 41.4773 19.2506 41.0944 19.1548 40.7475C19.0593 40.4032 18.9885 40.0939 18.9257 39.8368C18.7906 39.3295 18.7344 39.0152 18.7344 39.0152C18.7344 39.0152 19.7522 38.9291 21.1618 39.25C21.876 39.4087 22.661 39.6784 23.4683 40.1318C24.2899 40.5792 25.0865 41.2105 25.8212 42.0989Z" fill="#2A2B2E"/>
<path d="M24.8241 57.3939C25.6777 59.7119 25.5589 62.5239 25.0649 64.642C25.0058 64.9145 24.9545 65.1716 24.887 65.4144C24.8145 65.6619 24.7449 65.8938 24.6791 66.1096C24.5437 66.5523 24.4104 66.9312 24.2963 67.2578C24.1891 67.5748 24.0721 67.8223 23.9946 67.9906C23.9184 68.1636 23.8738 68.2527 23.8738 68.2527C23.8738 68.2527 23.6429 68.1067 23.2784 67.8003C22.9169 67.5006 22.4335 67.0472 21.9106 66.4506C20.8413 65.2461 19.6997 63.5091 19.0608 61.2819C18.4092 59.0487 18.3812 56.7529 18.3975 54.9607C18.4188 54.513 18.4045 54.0926 18.4324 53.7281C18.447 53.3549 18.4787 53.0282 18.503 52.7558C18.5282 52.2113 18.5708 51.8923 18.5708 51.8923C18.5708 51.8923 18.8432 51.9542 19.2822 52.1079C19.721 52.2715 20.333 52.5189 21.0096 52.9122C21.7008 53.3126 22.4056 53.8402 23.0918 54.5769C23.4281 54.9365 23.7597 55.3522 24.0634 55.8249C24.3455 56.2869 24.6046 56.8098 24.8241 57.3939Z" fill="#2A2B2E"/>
<path d="M18.9662 71.5701C18.9749 71.9017 18.9845 72.2477 18.9565 72.5773C18.9283 72.9139 18.8868 73.2502 18.8308 73.5865C18.7274 74.2603 18.5757 74.9359 18.3512 75.5722C18.247 75.8932 18.1347 76.2102 18.0129 76.5242C17.9521 76.6828 17.8892 76.8365 17.8313 76.9845C17.7617 77.1352 17.691 77.2842 17.6214 77.4349C17.3393 78.017 17.0423 78.5738 16.7486 79.086C16.1153 80.0759 15.5276 80.9294 15.0413 81.4816C14.5676 82.0401 14.2642 82.3601 14.2642 82.3601C14.2642 82.3601 14.0776 82.1242 13.8166 81.6815C13.5498 81.2484 13.2065 80.6075 12.8848 79.8158C12.5579 79.0212 12.2662 78.0912 12.035 77.0271C11.8175 75.9674 11.716 74.8191 11.7479 73.5672C11.8464 71.0895 12.5745 68.7415 13.1863 66.9107C13.3535 66.462 13.4869 66.0339 13.6339 65.6654C13.774 65.2915 13.9287 64.9725 14.0215 64.6931C14.2363 64.1459 14.3909 63.8336 14.3909 63.8336C14.3909 63.8336 14.6471 63.9873 15.0462 64.292C15.4454 64.5993 15.9869 65.0663 16.5474 65.6926C16.8268 66.0049 17.1198 66.3682 17.3905 66.7667C17.6563 67.1725 17.9058 67.6105 18.1347 68.0958C18.3591 68.5858 18.5571 69.1204 18.7091 69.7014C18.8491 70.2785 18.9333 70.8972 18.9662 71.5701Z" fill="#2A2B2E"/>
<path d="M9.03392 83.1733C8.6298 84.5371 7.9203 85.8636 7.03757 87.0071C6.60845 87.6085 6.11821 88.1304 5.62822 88.6254C5.38545 88.8679 5.13996 89.1203 4.89051 89.3455C4.63834 89.566 4.38591 89.7709 4.13844 89.9718C3.16316 90.7831 2.20124 91.3399 1.52465 91.7457C1.18809 91.9566 0.897309 92.0726 0.701064 92.1741C0.506799 92.2679 0.39742 92.3152 0.39742 92.3152C0.39742 92.3152 0.306597 92.0058 0.212805 91.4683C0.119014 90.9271 0.0262119 90.1624 0.00690916 89.2517C-0.0183329 88.3237 0.0215089 87.2593 0.194491 86.1333C0.282344 85.5812 0.389749 84.9848 0.539469 84.3864C0.688447 83.7851 0.889394 83.2062 1.11558 82.5893C2.06389 80.1814 3.51308 78.0905 4.70392 76.4847C4.78335 76.3852 4.86056 76.2914 4.93208 76.1949C5.00459 76.1011 5.0724 76.0063 5.14293 75.9076C5.28027 75.7269 5.41539 75.5539 5.54705 75.3906C5.80615 75.0637 6.05362 74.7989 6.23724 74.5514C6.62478 74.0787 6.88191 73.8167 6.88191 73.8167C6.88191 73.8167 7.09374 74.0565 7.40209 74.5002C7.71044 74.9429 8.11456 75.5905 8.48577 76.4122C8.67236 76.8232 8.85203 77.2813 8.99902 77.7812C9.14404 78.2712 9.26011 78.803 9.33064 79.3722C9.40017 79.9436 9.43309 80.5573 9.39151 81.1935C9.344 81.8199 9.22818 82.4831 9.03392 83.1733Z" fill="#2A2B2E"/>
<path d="M17.8749 10.8524C18.1107 12.8371 18.8298 14.8438 19.4921 16.3762C19.8121 17.1505 20.1387 17.7942 20.3582 18.2612C20.5844 18.7291 20.7341 18.989 20.7341 18.989C20.7341 18.989 21.4206 18.494 22.1118 17.4821C22.8 16.47 23.4882 14.9329 23.3838 12.8517C23.292 10.7529 22.34 8.56525 21.381 6.93441C21.1402 6.52955 20.8995 6.15537 20.6799 5.82376C20.4538 5.4971 20.2372 5.21275 20.0576 4.97988C19.693 4.51191 19.4621 4.24241 19.4621 4.24241C19.4621 4.24241 18.9226 4.90539 18.4722 6.06826C18.2461 6.64536 18.0449 7.34051 17.9241 8.14974C17.7927 8.96169 17.7694 9.85779 17.8749 10.8524Z" fill="#2A2B2E"/>
<path d="M26.2838 25.3362C25.9339 27.5209 26.1398 29.8652 26.3912 31.7036C26.4521 32.161 26.5179 32.5874 26.5874 32.9652C26.6483 33.352 26.7062 33.6933 26.7604 33.9677C26.8678 34.5293 26.9537 34.8562 26.9537 34.8562C26.9537 34.8562 27.8295 34.5322 28.8592 33.6614C29.3695 33.2157 29.9283 32.6396 30.4156 31.8816C30.892 31.1392 31.331 30.2015 31.5688 29.0752C32.0734 26.8114 31.7138 24.21 31.182 22.2129C30.9249 21.2133 30.6069 20.3645 30.374 19.7651C30.1448 19.1687 29.9699 18.8208 29.9699 18.8208C29.9699 18.8208 29.7736 18.9542 29.4779 19.2209C29.1829 19.4857 28.7847 19.8918 28.3643 20.439C27.9436 20.9802 27.5078 21.6608 27.1433 22.4777C26.7691 23.2916 26.4521 24.2525 26.2838 25.3362Z" fill="#2A2B2E"/>
<path d="M30.6811 41.5691C29.6766 43.7963 29.1913 46.3359 28.8181 48.3349C28.7293 48.8395 28.6684 49.3055 28.6026 49.726C28.5283 50.1417 28.4771 50.5159 28.4355 50.8223C28.3534 51.4439 28.3281 51.8171 28.3281 51.8171C28.3281 51.8171 28.5843 51.8045 29.0097 51.728C29.4388 51.6535 30.0362 51.5105 30.7207 51.2301C31.4069 50.9537 32.1795 50.5322 32.9595 49.8992C33.7203 49.263 34.453 48.4094 35.0997 47.2609C36.3526 44.9641 36.7615 41.9848 36.7518 39.6561C36.7615 39.0723 36.7285 38.5252 36.6939 38.0409C36.661 37.5506 36.6241 37.1176 36.5768 36.761C36.4793 36.0485 36.3952 35.6221 36.3952 35.6221C36.3952 35.6221 35.4283 35.9817 34.2568 36.9146C33.673 37.3777 33.0128 37.9887 32.3941 38.7657C31.787 39.5257 31.1711 40.4584 30.6811 41.5691Z" fill="#2A2B2E"/>
<path d="M29.996 58.5705C28.1699 60.5231 26.7675 62.9555 25.6538 64.8684C25.5232 65.1109 25.3947 65.3487 25.2737 65.5683C25.1473 65.7915 25.0282 66.0013 24.9191 66.2072C24.6966 66.6153 24.51 66.9796 24.3613 67.2812C24.0577 67.8903 23.873 68.2538 23.873 68.2538C23.873 68.2538 24.1388 68.3407 24.6088 68.4218C25.0758 68.4963 25.7494 68.5755 26.5576 68.5379C28.1449 68.4491 30.3595 67.9445 32.468 66.0389C34.5715 64.1453 36.1095 61.2036 36.9262 58.7289C37.1477 58.1122 37.2877 57.5207 37.4357 56.9889C37.5681 56.4574 37.6852 55.9787 37.7643 55.5786C37.9064 54.7743 37.9606 54.294 37.9606 54.294C37.9606 54.294 37.6802 54.3036 37.2115 54.3875C36.7415 54.4823 36.0813 54.6456 35.3156 54.9376C34.5636 55.2363 33.6558 55.6531 32.755 56.2465C32.3027 56.5415 31.8443 56.8798 31.392 57.2683C30.9203 57.6521 30.4513 58.0852 29.996 58.5705Z" fill="#2A2B2E"/>
<path d="M23.8831 74.5207C23.5611 74.6937 23.2624 74.884 22.9494 75.0765C22.6371 75.2631 22.3287 75.4631 22.032 75.668C21.4346 76.079 20.8672 76.5198 20.2977 76.9432C20.0174 77.1578 19.7466 77.383 19.4828 77.6015C19.3504 77.7176 19.2217 77.8316 19.0933 77.9378C18.9626 78.0472 18.8322 78.1534 18.7008 78.2598C18.1873 78.6852 17.7119 79.1153 17.2769 79.5214C16.3622 80.3014 15.648 81.0391 15.0989 81.5341C14.5653 82.0404 14.2656 82.3604 14.2656 82.3604C14.2656 82.3604 14.5081 82.5413 14.9519 82.7828C15.4005 83.0285 16.0558 83.33 16.8987 83.5774C17.7349 83.8202 18.7713 84.0135 19.9312 83.9662C21.0961 83.9246 22.4408 83.6868 23.8405 83.0555C26.6768 81.8182 29.2666 79.2865 30.942 77.0051C31.3741 76.4357 31.7267 75.8739 32.0536 75.3762C32.3706 74.8716 32.6597 74.424 32.8626 74.0305C33.2783 73.2552 33.5026 72.7758 33.5026 72.7758C33.5026 72.7758 33.2125 72.6917 32.6973 72.6251C32.184 72.5553 31.4483 72.508 30.5638 72.5506C30.1201 72.5746 29.6398 72.6298 29.1302 72.709C28.612 72.7854 28.0659 72.8966 27.4984 73.0502C26.9339 73.1982 26.3452 73.3992 25.7508 73.6486C25.1388 73.8818 24.5085 74.1765 23.8831 74.5207Z" fill="#2A2B2E"/>
<path d="M13.0272 87.8589C11.4845 88.1336 9.96969 88.6063 8.5148 89.0916C7.80505 89.3534 7.08887 89.5962 6.41897 89.8533C6.08538 89.9877 5.75575 90.1134 5.43874 90.2448C5.11678 90.3609 4.80373 90.4826 4.50478 90.5957C3.3189 91.0983 2.27581 91.4918 1.55938 91.8234C1.1998 91.9897 0.901106 92.0882 0.701892 92.177C0.503915 92.2661 0.394531 92.3134 0.394531 92.3134C0.394531 92.3134 0.566524 92.5881 0.919418 93.0086C1.27429 93.429 1.81551 93.9935 2.57252 94.5679C3.3189 95.1274 4.28057 95.6842 5.49665 96.0893C6.11062 96.3002 6.76889 96.4442 7.49299 96.533C8.2161 96.6122 9.0194 96.6588 9.85932 96.5843C10.6955 96.5061 11.5637 96.3541 12.4268 96.1366C13.2727 95.8988 14.1225 95.6001 14.9577 95.2581C15.7707 94.8992 16.5594 94.4934 17.3154 94.0826C18.0645 93.6572 18.751 93.1942 19.3976 92.7514C19.5582 92.6401 19.7196 92.5309 19.8742 92.4245C20.0232 92.3087 20.168 92.1973 20.312 92.0833C20.5973 91.86 20.8631 91.6455 21.1183 91.4396C21.6239 91.0191 22.0752 90.64 22.4138 90.297C23.1136 89.6281 23.5108 89.2027 23.5108 89.2027C23.5108 89.2027 23.2403 89.0267 22.7308 88.7919C22.2222 88.5541 21.4848 88.265 20.5558 88.0272C20.0937 87.9111 19.5842 87.8067 19.0313 87.7226C18.4735 87.6387 17.8752 87.5689 17.2409 87.5466C16.6059 87.513 15.9427 87.5273 15.2398 87.5795C14.5284 87.6164 13.7909 87.7102 13.0272 87.8589Z" fill="#2A2B2E"/>
<path d="M8.00888 6.97636C9.81096 8.49608 11.7625 9.59708 13.3218 10.3887C13.7067 10.587 14.0779 10.7503 14.3998 10.8983C14.7225 11.052 15.0116 11.1834 15.2494 11.2821C15.728 11.4831 16.02 11.5788 16.02 11.5788C16.02 11.5788 15.9822 11.2821 15.871 10.7629C15.8198 10.4981 15.7443 10.1838 15.6515 9.83019C15.5414 9.47037 15.4127 9.07714 15.2524 8.63912C14.6104 6.93379 13.3817 4.70482 11.2995 2.95693C11.0434 2.74707 10.7815 2.53648 10.5155 2.34592C10.2468 2.15562 9.97231 1.98264 9.69687 1.81906C9.42317 1.65573 9.15269 1.50204 8.877 1.36099C8.59489 1.22463 8.31747 1.10386 8.04377 0.992747C7.7713 0.876683 7.50428 0.762599 7.2385 0.673757C6.96776 0.591597 6.70396 0.512158 6.44486 0.445589C6.18872 0.3711 5.94323 0.307256 5.70046 0.255039C5.45992 0.202823 5.21715 0.170897 4.99294 0.133282C4.54056 0.071414 4.12976 0.0248909 3.76524 0.00756741C3.39403 -0.00678539 3.07405 0.00286579 2.81297 0.00756741C2.29006 0.0248909 1.99805 0.0617628 1.99805 0.0617628C1.99805 0.0617628 2.16335 0.324575 2.467 0.745276C2.62167 0.954885 2.80826 1.19765 3.02777 1.47804C3.23738 1.76214 3.4752 2.0841 3.74198 2.41076C4.816 3.76888 6.20902 5.45961 8.00888 6.97636Z" fill="#2A2B2E"/>
</svg>
