<svg width="38" height="97" viewBox="0 0 38 97" fill="none" xmlns="http://www.w3.org/2000/svg">
<path d="M19.5348 11.1924C19.2855 13.1811 18.5472 15.1906 17.8833 16.7363C17.5557 17.5061 17.2281 18.1565 17.0064 18.6284C16.7801 19.0935 16.6234 19.362 16.6234 19.362C16.6234 19.362 15.95 18.8683 15.2747 17.8633C14.5937 16.8537 13.925 15.3207 14.0454 13.2344C14.1485 11.1464 15.1104 8.94566 16.079 7.3066C16.3264 6.90068 16.568 6.52435 16.7915 6.19669C17.016 5.85949 17.2366 5.57779 17.4172 5.34378C17.7859 4.87184 18.019 4.59968 18.019 4.59968C18.019 4.59968 18.5519 5.25599 18.9856 6.40698C19.211 6.98944 19.3982 7.68586 19.5109 8.48815C19.6361 9.29534 19.6494 10.1952 19.5348 11.1924Z" fill="#2A2B2E"/>
<path d="M11.2529 25.8167C11.5891 27.9984 11.3723 30.348 11.1191 32.182C11.0609 32.6444 10.994 33.0723 10.9204 33.4562C10.8603 33.8391 10.803 34.1744 10.7476 34.4534C10.6368 35.016 10.5508 35.3484 10.5508 35.3484C10.5508 35.3484 9.68827 35.0207 8.67385 34.1477C8.17142 33.7103 7.61933 33.1334 7.13983 32.3778C6.67369 31.6337 6.24005 30.7023 6.00985 29.5753C5.51603 27.3154 5.88282 24.7134 6.42058 22.721C6.67849 21.716 6.99463 20.8726 7.22772 20.2728C7.46078 19.672 7.63366 19.3272 7.63366 19.3272C7.63366 19.3272 7.82471 19.456 8.11604 19.7236C8.40641 19.9842 8.80281 20.3931 9.21832 20.9357C9.62905 21.4763 10.0579 22.1488 10.4171 22.9655C10.7772 23.7773 11.0914 24.7334 11.2529 25.8167Z" fill="#2A2B2E"/>
<path d="M7.01891 42.1085C8.00848 44.331 8.48607 46.8795 8.85765 48.8826C8.94744 49.3832 9.00283 49.8607 9.06971 50.2733C9.14324 50.6936 9.19674 51.068 9.23589 51.3812C9.319 52.0004 9.34192 52.3737 9.34192 52.3737C9.34192 52.3737 9.09262 52.3642 8.66851 52.286C8.2492 52.2124 7.65793 52.0634 6.97976 51.7874C6.30252 51.5008 5.53551 51.0853 4.76564 50.4547C4.01391 49.8091 3.28987 48.9553 2.64894 47.806C1.41197 45.5099 1.0108 42.5296 1.02513 40.199C1.01559 39.6173 1.04807 39.0786 1.07959 38.5895C1.11874 38.1061 1.156 37.6676 1.19994 37.3057C1.29927 36.5971 1.38238 36.1768 1.38238 36.1768C1.38238 36.1768 2.33946 36.5281 3.49525 37.4605C4.0693 37.92 4.71979 38.534 5.33111 39.304C5.93286 40.0642 6.53751 40.9986 7.01891 42.1085Z" fill="#2A2B2E"/>
<path d="M7.88219 59.0988C9.69225 61.0455 11.0859 63.4736 12.1967 65.3858C12.3267 65.6352 12.4527 65.8673 12.575 66.0928C12.6973 66.3153 12.8157 66.5253 12.9284 66.7327C13.1472 67.1366 13.3325 67.4988 13.4843 67.8044C13.7862 68.4128 13.9686 68.773 13.9686 68.773C13.9686 68.773 13.7059 68.8559 13.2446 68.9285C12.7785 69.007 12.1137 69.0787 11.3113 69.0413C9.74289 68.9486 7.54692 68.4395 5.45792 66.5349C3.37276 64.6398 1.84351 61.7103 1.03352 59.2431C0.811903 58.6298 0.669589 58.0329 0.52632 57.5028C0.392588 56.9687 0.277 56.4968 0.198678 56.1014C0.0601781 55.304 0 54.8149 0 54.8149C0 54.8149 0.277 54.8271 0.743142 54.9152C1.20926 55.0078 1.86452 55.1739 2.61815 55.4634C3.36129 55.7585 4.25822 56.1799 5.15131 56.7738C5.60026 57.069 6.053 57.412 6.50002 57.7979C6.96807 58.1772 7.43228 58.6097 7.88219 59.0988Z" fill="#2A2B2E"/>
<path d="M14.1393 74.9201C14.4555 75.091 14.7506 75.284 15.062 75.4674C15.3734 75.6632 15.6753 75.8562 15.9733 76.0645C16.5636 76.4751 17.1262 76.9079 17.6936 77.3358C17.9706 77.5537 18.2409 77.7762 18.5007 77.9911C18.6306 78.1039 18.7595 78.2183 18.8866 78.3291C19.0222 78.4342 19.1493 78.546 19.2811 78.6462C19.7882 79.0771 20.2611 79.5001 20.6966 79.9063C21.606 80.676 22.3119 81.4145 22.8602 81.9082C23.3913 82.4078 23.6911 82.7306 23.6911 82.7306C23.6911 82.7306 23.4514 82.9034 23.0081 83.148C22.565 83.3878 21.9175 83.6886 21.0844 83.9285C20.2564 84.1681 19.2257 84.3535 18.0766 84.3029C16.9237 84.2562 15.5922 84.0212 14.2014 83.3878C11.3884 82.1527 8.82086 79.6348 7.15788 77.3654C6.729 76.8027 6.37845 76.2479 6.0556 75.7493C5.73657 75.2478 5.45098 74.8054 5.2523 74.4166C4.83487 73.6412 4.61328 73.1617 4.61328 73.1617C4.61328 73.1617 4.89984 73.0832 5.4099 73.0155C5.9171 72.9544 6.64591 72.8998 7.52181 72.9544C7.96025 72.9783 8.43116 73.028 8.94026 73.1052C9.45318 73.1864 9.99479 73.2962 10.5555 73.4481C11.1162 73.6002 11.6969 73.7977 12.2853 74.0471C12.8918 74.2868 13.5146 74.5724 14.1393 74.9201Z" fill="#2A2B2E"/>
<path d="M25.054 88.0507C26.5832 88.3316 28.082 88.7957 29.5261 89.2801C30.2291 89.5398 30.9427 89.7844 31.6066 90.0384C31.9389 90.1732 32.2599 90.3003 32.5751 90.4243C32.896 90.5419 33.2075 90.6622 33.5026 90.7769C34.6793 91.2755 35.7119 91.6623 36.4245 91.9946C36.7778 92.1609 37.0779 92.2612 37.2737 92.3538C37.4696 92.437 37.5784 92.479 37.5784 92.479C37.5784 92.479 37.4121 92.7502 37.0598 93.1657C36.7091 93.5814 36.1714 94.1438 35.4234 94.7113C34.6832 95.2566 33.7327 95.8039 32.5292 96.2051C31.9198 96.4181 31.2655 96.5575 30.5502 96.6426C29.8357 96.7238 29.04 96.7649 28.2071 96.6896C27.376 96.6111 26.5165 96.4592 25.6606 96.2423C24.8209 96.0073 23.9812 95.7114 23.156 95.376C22.348 95.0141 21.5685 94.6187 20.8168 94.2079C20.0783 93.7848 19.3983 93.3273 18.7546 92.885C18.596 92.7798 18.4412 92.6671 18.2884 92.5622C18.1394 92.4475 17.9933 92.3299 17.851 92.2191C17.5692 92.0025 17.3017 91.7865 17.0524 91.5841C16.55 91.1628 16.1068 90.7894 15.7658 90.4541C15.0733 89.7892 14.6816 89.3679 14.6816 89.3679C14.6816 89.3679 14.951 89.195 15.4544 88.9571C15.952 88.728 16.6885 88.4463 17.6035 88.2123C18.063 88.0917 18.5654 87.9895 19.1127 87.9113C19.6639 87.8225 20.2561 87.7643 20.8818 87.7374C21.5132 87.7078 22.1683 87.7232 22.8628 87.7739C23.5658 87.8157 24.2994 87.9008 25.054 88.0507Z" fill="#2A2B2E"/>
<path d="M22.7151 13.6056C20.9222 14.2609 19.3615 15.7119 18.2822 16.9879C17.7539 17.6337 17.3203 18.2154 17.05 18.6575C16.773 19.0959 16.6211 19.3644 16.6211 19.3644C16.6211 19.3598 17.4101 19.6625 18.6022 19.7407C19.7952 19.8239 21.4 19.7141 23.0628 18.9805C24.7173 18.2296 26.1883 17.0568 27.2589 16.0804C27.5313 15.8359 27.7729 15.6038 27.9878 15.3909C28.1998 15.1808 28.3937 15.0001 28.5485 14.8387C28.8552 14.5206 29.0251 14.322 29.0251 14.322C29.0251 14.322 28.3451 13.8386 27.2198 13.4862C26.6591 13.3173 25.9714 13.173 25.211 13.1634C24.4583 13.1586 23.6008 13.2666 22.7151 13.6056Z" fill="#2A2B2E"/>
<path d="M15.3495 27.438C13.6474 28.6797 12.3875 30.6675 11.6224 32.3332C11.4285 32.7516 11.2671 33.1499 11.1238 33.5091C10.9901 33.874 10.886 34.1967 10.801 34.4682C10.6281 35.0135 10.5469 35.3507 10.5469 35.3507C10.5469 35.3507 11.4725 35.4289 12.7706 35.1748C13.4258 35.0404 14.1642 34.832 14.934 34.4919C15.7211 34.1596 16.5072 33.6876 17.2962 33.0668C18.8436 31.7925 20.0577 30.1009 20.924 28.7218C21.351 28.0293 21.7016 27.4206 21.9347 26.9805C22.1582 26.5381 22.2966 26.2716 22.2966 26.2716C22.2966 26.2716 22.075 26.198 21.6921 26.1198C21.3099 26.0415 20.7626 25.9535 20.1122 25.9488C19.4645 25.9383 18.6984 26.007 17.8817 26.22C17.0612 26.4425 16.2073 26.8286 15.3495 27.438Z" fill="#2A2B2E"/>
<path d="M11.8218 42.6298C10.392 44.4075 9.6536 46.8748 9.43294 48.8721C9.37753 49.3688 9.32215 49.8453 9.30782 50.2637C9.29921 50.6841 9.29921 51.0633 9.304 51.3717C9.31738 52.0004 9.34506 52.3737 9.34506 52.3737C9.34506 52.3737 9.59438 52.3175 9.99555 52.1608C10.4034 52.0118 10.9641 51.77 11.5964 51.4128C12.2259 51.0584 12.927 50.5838 13.6052 49.9877C14.2996 49.3878 15.0026 48.6697 15.591 47.7964C16.8117 46.0627 17.5558 44.0378 18.0774 42.3997C18.1977 41.9938 18.3171 41.6099 18.4117 41.2649C18.5062 40.9181 18.576 40.6098 18.6428 40.3557C18.7737 39.8447 18.8339 39.5265 18.8339 39.5265C18.8339 39.5265 17.8233 39.4434 16.4306 39.7662C15.7267 39.9278 14.952 40.199 14.1516 40.6565C13.3377 41.1035 12.5516 41.7398 11.8218 42.6298Z" fill="#2A2B2E"/>
<path d="M13.0046 57.9384C12.1612 60.2489 12.2853 63.0495 12.7859 65.172C12.846 65.4385 12.8967 65.6975 12.9607 65.942C13.0352 66.1866 13.1039 66.4118 13.1689 66.6345C13.3074 67.072 13.4411 67.4559 13.5519 67.774C13.6618 68.1017 13.7821 68.3462 13.8557 68.5123C13.9302 68.6805 13.976 68.7741 13.976 68.7741C13.976 68.7741 14.2062 68.6269 14.5615 68.3262C14.9169 68.0252 15.3992 67.5752 15.9112 66.9888C16.9648 65.7899 18.0862 64.0545 18.7156 61.8364C19.348 59.6139 19.3709 57.31 19.348 55.5198C19.327 55.0728 19.3384 54.6544 19.3136 54.2859C19.2945 53.9113 19.262 53.5885 19.2391 53.3173C19.2162 52.7718 19.1703 52.4441 19.1703 52.4441C19.1703 52.4441 18.9048 52.5072 18.4692 52.6666C18.0356 52.8234 17.4309 53.0745 16.7623 53.4692C16.0794 53.8646 15.383 54.3957 14.7096 55.1293C14.3724 55.4885 14.0458 55.899 13.7496 56.369C13.4688 56.8361 13.2176 57.352 13.0046 57.9384Z" fill="#2A2B2E"/>
<path d="M18.997 72.0028C18.9874 72.338 18.9788 72.6752 19.0113 73.0075C19.039 73.3408 19.0781 73.6751 19.1355 74.0133C19.2415 74.6782 19.3943 75.3506 19.6149 75.9839C19.7219 76.3067 19.8366 76.6199 19.9522 76.9305C20.017 77.0872 20.0762 77.2428 20.1412 77.3946C20.21 77.5418 20.277 77.6861 20.3486 77.8321C20.6257 78.4101 20.9225 78.9669 21.2159 79.4809C21.8483 80.4607 22.429 81.3166 22.9161 81.8602C23.3888 82.4123 23.6935 82.7331 23.6935 82.7331C23.6935 82.7331 23.8779 82.4954 24.1358 82.0626C24.3965 81.6347 24.731 80.9967 25.0489 80.2145C25.37 79.4293 25.6556 78.5075 25.8801 77.4511C26.094 76.3994 26.1933 75.2645 26.1522 74.0228C26.0434 71.5604 25.3145 69.2154 24.7014 67.3986C24.5371 66.9506 24.4014 66.5227 24.2532 66.1588C24.1129 65.7845 23.963 65.4644 23.8637 65.1883C23.6517 64.645 23.4996 64.3325 23.4996 64.3325C23.4996 64.3325 23.2455 64.4836 22.8511 64.7873C22.4567 65.0929 21.9236 65.5524 21.3688 66.1808C21.0964 66.4894 20.8051 66.8457 20.5406 67.2421C20.2796 67.6336 20.0334 68.0759 19.8089 68.5574C19.5872 69.0416 19.3943 69.5746 19.2415 70.1515C19.1106 70.7237 19.0247 71.3379 18.997 72.0028Z" fill="#2A2B2E"/>
<path d="M28.9984 83.4261C29.4007 84.7737 30.1056 86.0861 30.9825 87.2258C31.4065 87.8178 31.8956 88.3337 32.3797 88.8274C32.6243 89.0769 32.8651 89.3119 33.1133 89.5373C33.3657 89.754 33.6158 89.9574 33.8603 90.1552C34.8299 90.9671 35.7804 91.5172 36.4538 91.9185C36.79 92.1269 37.0803 92.2508 37.2722 92.3415C37.4635 92.4342 37.5723 92.4812 37.5723 92.4812C37.5723 92.4812 37.662 92.1755 37.7517 91.6444C37.8464 91.1162 37.9361 90.354 37.9525 89.4532C37.9801 88.5418 37.9391 87.4855 37.7632 86.3726C37.6715 85.8244 37.5674 85.238 37.4155 84.6438C37.2703 84.0469 37.0688 83.4747 36.8387 82.8634C35.8948 80.4773 34.4565 78.4008 33.2701 76.8141C33.1965 76.7187 33.1182 76.6211 33.0446 76.5228C32.9749 76.4272 32.9033 76.3394 32.8365 76.2421C32.6979 76.0634 32.5641 75.8924 32.4352 75.7262C32.1773 75.408 31.9327 75.1388 31.7484 74.8972C31.3654 74.4253 31.1114 74.1636 31.1114 74.1636C31.1114 74.1636 30.9013 74.4082 30.5947 74.8407C30.291 75.2782 29.8936 75.9191 29.5249 76.7358C29.3442 77.1417 29.1676 77.5992 29.0194 78.0883C28.8791 78.5717 28.7654 79.098 28.6937 79.6606C28.6299 80.2233 28.5974 80.8365 28.6412 81.4601C28.6901 82.0839 28.8045 82.7412 28.9984 83.4261Z" fill="#2A2B2E"/>
<path d="M26.0853 3.31653C24.0193 5.11894 22.8378 7.38082 22.2294 9.09251C22.0812 9.52997 21.9523 9.9217 21.8597 10.276C21.768 10.6382 21.7032 10.9504 21.6525 11.2074C21.555 11.7261 21.5254 12.0241 21.5254 12.0241C21.5254 12.0241 21.8139 11.919 22.2935 11.6965C22.5311 11.5818 22.8148 11.4471 23.1378 11.2827C23.4635 11.1272 23.8303 10.936 24.2123 10.7279C25.7694 9.88917 27.7188 8.70371 29.5222 7.13629C31.319 5.55371 32.7145 3.81805 33.7889 2.43403C34.0564 2.09878 34.2963 1.76622 34.5093 1.47499C34.7259 1.19403 34.9152 0.944857 35.0671 0.731874C35.3717 0.303951 35.538 0.0344772 35.538 0.0344772C35.538 0.0344772 35.2333 0.0124826 34.6937 0.0173731C34.4232 0.0229969 34.0936 0.0298386 33.7156 0.0545359C33.3419 0.100507 32.9179 0.154797 32.4518 0.242826C31.9855 0.321075 31.4918 0.446264 30.9712 0.612542C30.7076 0.689814 30.4401 0.77858 30.166 0.871256C29.9004 0.981049 29.6283 1.09573 29.3512 1.22093C29.0742 1.34613 28.7935 1.47964 28.5115 1.62196C28.2394 1.78065 27.9653 1.94497 27.6882 2.1159C27.4161 2.29171 27.1324 2.47022 26.8698 2.67562C26.6069 2.87613 26.3433 3.08912 26.0853 3.31653Z" fill="#2A2B2E"/>
</svg>
