<svg width="137" height="39" viewBox="0 0 137 39" fill="none" xmlns="http://www.w3.org/2000/svg">
<path d="M31.3352 12.7382C31.1829 20.3795 23.9865 26.5604 15.0172 26.8213V26.477C15.0172 26.3667 15.0172 26.2564 15.0172 26.1462C14.8903 26.1462 14.7571 26.1515 14.6271 26.1515H14.4272C14.5446 22.343 16.4127 18.9029 19.375 16.3908C22.3246 13.8894 26.3589 12.3079 30.8277 12.1976V12.4128C30.8277 12.523 30.8277 12.6333 30.8277 12.7436C30.9546 12.7409 31.0878 12.7382 31.2178 12.7382H31.3352Z" fill="#99002F"/>
<path d="M38.2395 12.7382V18.6931C38.2395 26.2833 30.986 32.4319 22.0388 32.4319H15.0137V26.8213V26.477C15.0137 26.3667 15.0137 26.2564 15.0137 26.1462C23.65 25.9713 30.6117 20.0675 30.821 12.7436C30.9479 12.7409 31.0811 12.7382 31.2112 12.7382H38.2331H38.2395Z" fill="#8BC74F"/>
<path d="M30.8308 6.45517V12.4128C30.8308 12.523 30.8308 12.6333 30.8308 12.7436C22.1913 12.9184 15.2296 18.8222 15.0234 26.1461C14.8966 26.1461 14.7633 26.1515 14.6333 26.1515H7.61133V20.1939C7.61133 12.6064 14.8617 6.45517 23.812 6.45517H30.834H30.8308Z" fill="#E8184E"/>
<path d="M66.6932 12.4364C66.6932 10.9315 67.8644 9.77051 69.66 9.77051C71.3673 9.77051 72.514 10.9192 72.514 12.4364C72.514 13.9535 71.3673 15.1022 69.66 15.1022C67.8644 15.1022 66.6932 13.9412 66.6932 12.4364Z" fill="#2B2C2F"/>
<path fill-rule="evenodd" clip-rule="evenodd" d="M76.4491 11.5614C76.8357 11.1747 77.4015 10.9363 78.1139 10.9363C78.8476 10.9363 79.4228 11.1764 79.8131 11.5628C80.2031 11.949 80.4414 12.5138 80.4414 13.2261V20.5412L81.1439 19.8877C82.6791 18.4596 84.7568 17.5927 87.3655 17.5927C90.3613 17.5927 92.844 18.6888 94.5792 20.518C96.3162 22.3493 97.3274 24.9405 97.3274 27.968C97.3274 33.9648 92.8665 38.3057 86.5381 38.3057C80.2878 38.3057 75.8241 33.93 75.8241 27.968V13.2261C75.8241 12.5137 76.0625 11.948 76.4491 11.5614ZM86.5005 21.0441C84.7512 21.0441 83.225 21.7206 82.1403 22.9427C81.0588 24.1613 80.4414 25.8928 80.4414 27.968C80.4414 30.0253 81.0594 31.7475 82.1409 32.961C83.2254 34.1779 84.7513 34.8543 86.5005 34.8543C88.2671 34.8543 89.8025 34.1789 90.8923 32.9618C91.9792 31.748 92.5972 30.0253 92.5972 27.968C92.5972 25.8928 91.9797 24.1609 90.8929 22.942C89.8029 21.7196 88.2672 21.0441 86.5005 21.0441Z" fill="#2B2C2F"/>
<path d="M51.3661 11.3124C50.555 11.3124 49.9243 11.5726 49.4978 11.9952C49.0716 12.4175 48.813 13.038 48.813 13.8278V35.7902C48.813 36.5595 49.0706 37.1824 49.4958 37.6115C49.9204 38.04 50.5423 38.3057 51.3285 38.3057C52.1359 38.3057 52.7671 38.0385 53.1954 37.6101C53.6241 37.1814 53.8816 36.5594 53.8816 35.7902V26.5347H62.6861C63.2855 26.5347 63.7573 26.334 64.0782 26.0131C64.3992 25.6922 64.5999 25.2204 64.5999 24.621C64.5999 23.9783 64.3955 23.4876 64.0749 23.1597C63.755 22.8324 63.2852 22.6321 62.6861 22.6321H53.8816V15.215H63.0246C63.6246 15.215 64.1077 15.0138 64.4389 14.6901C64.7691 14.3673 64.976 13.8959 64.976 13.3013C64.976 12.6633 64.7652 12.1731 64.4355 11.8434C64.1054 11.5133 63.6243 11.3124 63.0246 11.3124H51.3661Z" fill="#2B2C2F"/>
<path d="M67.9106 18.2178C68.2944 17.834 68.8679 17.5927 69.6224 17.5927C70.3348 17.5927 70.9006 17.8312 71.2872 18.2178C71.6739 18.6044 71.9123 19.1701 71.9123 19.8825V36.0159C71.9123 36.7282 71.674 37.293 71.284 37.6792C70.8937 38.0656 70.3186 38.3057 69.5848 38.3057C68.8724 38.3057 68.3066 38.0673 67.92 37.6806C67.5334 37.294 67.295 36.7283 67.295 36.0159V19.8825C67.295 19.1661 67.5265 18.6019 67.9106 18.2178Z" fill="#2B2C2F"/>
<path fill-rule="evenodd" clip-rule="evenodd" d="M109.654 17.5927C103.802 17.5927 99.5412 21.9462 99.5412 27.968C99.5412 33.98 103.867 38.3057 109.879 38.3057C114.493 38.3057 118.252 35.7773 119.304 32.9734L119.308 32.9623L119.308 32.9604L119.312 32.953C119.522 32.4722 119.471 31.9897 119.244 31.6336C119.02 31.2824 118.603 31.0184 118.002 31.0184C117.361 31.0184 116.624 31.3534 116.125 31.8292L116.119 31.8345L116.115 31.8413C115.014 33.7851 112.826 35.08 110.481 35.08C108.784 35.08 107.313 34.499 106.232 33.4535C105.152 32.4093 104.486 30.927 104.348 29.1666L104.312 28.7159H116.197C117.398 28.7159 118.34 28.2905 118.906 27.6681C119.465 27.0529 119.685 26.2185 119.408 25.3065L119.403 25.2901L119.399 25.2733C118.426 20.7658 114.685 17.5927 109.654 17.5927ZM104.437 25.85C104.827 22.5773 106.888 20.3296 109.654 20.3296C112.455 20.3296 114.518 22.5751 114.907 25.85H104.437Z" fill="#2B2C2F"/>
<path d="M123.151 18.2192C123.541 17.8328 124.116 17.5927 124.85 17.5927C125.482 17.5927 125.988 17.7746 126.36 18.074C126.732 18.3734 126.996 18.8104 127.111 19.3651L127.253 20.058L127.791 19.5987C129.262 18.3434 131.122 17.5927 133.199 17.5927C134.02 17.5927 134.52 17.7938 134.814 18.0744C135.105 18.3517 135.263 18.771 135.263 19.356C135.263 19.8917 135.103 20.288 134.824 20.5527C134.543 20.8198 134.086 21.0065 133.387 21.0065C131.726 21.0065 130.178 21.5099 129.036 22.3691C127.892 23.2299 127.14 24.4634 127.14 25.8996V36.0159C127.14 36.7323 126.908 37.2965 126.524 37.6806C126.14 38.0644 125.567 38.3057 124.812 38.3057C124.1 38.3057 123.534 38.0673 123.147 37.6806C122.761 37.294 122.522 36.7283 122.522 36.0159V19.8825C122.522 19.1703 122.761 18.6054 123.151 18.2192Z" fill="#2B2C2F"/>
</svg>
