<svg width="128" height="32" viewBox="0 0 128 32" fill="none" xmlns="http://www.w3.org/2000/svg">
<path d="M31.9712 7.73297V15.0621C31.9712 24.4039 24.3997 31.9713 15.0602 31.9713H7.72705V25.0659V24.6422C7.72705 24.5065 7.72705 24.3708 7.72705 24.235C16.7421 24.0199 24.009 16.7537 24.2275 7.73959C24.3599 7.73628 24.499 7.73297 24.6347 7.73297H31.9646H31.9712Z" fill="white"/>
<path d="M24.2376 0V7.33241C24.2376 7.46814 24.2376 7.60386 24.2376 7.73959C15.2192 7.95476 7.95228 15.221 7.73709 24.235C7.60466 24.235 7.46561 24.2417 7.32987 24.2417H0V16.9092C0 7.57076 7.56824 0 16.911 0H24.2409H24.2376Z" fill="white"/>
<path d="M58.7484 4.49153C58.7484 2.98667 59.9196 1.82568 61.7152 1.82568C63.4225 1.82568 64.5692 2.97442 64.5692 4.49153C64.5692 6.00865 63.4225 7.15739 61.7152 7.15739C59.9196 7.15739 58.7484 5.9964 58.7484 4.49153Z" fill="white"/>
<path fill-rule="evenodd" clip-rule="evenodd" d="M68.5043 3.61653C68.8909 3.22992 69.4567 2.9915 70.1691 2.9915C70.9028 2.9915 71.478 3.23156 71.8682 3.61798C72.2582 4.00415 72.4965 4.56901 72.4965 5.28128V12.5964L73.1991 11.9428C74.7343 10.5148 76.812 9.64792 79.4206 9.64792C82.4165 9.64792 84.8992 10.744 86.6343 12.5732C88.3714 14.4044 89.3825 16.9957 89.3825 20.0232C89.3825 26.02 84.9217 30.3609 78.5933 30.3609C72.343 30.3609 67.8792 25.9852 67.8792 20.0232V5.28128C67.8792 4.56889 68.1177 4.00314 68.5043 3.61653ZM78.5557 13.0993C76.8064 13.0993 75.2802 13.7758 74.1955 14.9979C73.114 16.2165 72.4965 17.948 72.4965 20.0232C72.4965 22.0805 73.1146 23.8027 74.1961 25.0162C75.2806 26.2331 76.8065 26.9095 78.5557 26.9095C80.3222 26.9095 81.8576 26.2341 82.9475 25.0169C84.0343 23.8031 84.6524 22.0805 84.6524 20.0232C84.6524 17.948 84.0349 16.216 82.9481 14.9972C81.8581 13.7748 80.3223 13.0993 78.5557 13.0993Z" fill="white"/>
<path d="M43.4213 3.36757C42.6102 3.36757 41.9795 3.62774 41.553 4.05036C41.1267 4.4727 40.8682 5.09314 40.8682 5.88299V27.8454C40.8682 28.6147 41.1258 29.2376 41.551 29.6667C41.9756 30.0952 42.5974 30.3609 43.3837 30.3609C44.191 30.3609 44.8223 30.0936 45.2506 29.6653C45.6793 29.2366 45.9368 28.6146 45.9368 27.8454V18.5899H54.7413C55.3407 18.5899 55.8125 18.3892 56.1334 18.0683C56.4544 17.7474 56.6551 17.2756 56.6551 16.6762C56.6551 16.0334 56.4507 15.5428 56.1301 15.2149C55.8102 14.8876 55.3404 14.6872 54.7413 14.6872H45.9368V7.27021H55.0798C55.6798 7.27021 56.1629 7.06897 56.4941 6.74526C56.8243 6.42247 57.0311 5.95103 57.0311 5.3565C57.0311 4.71844 56.8204 4.22823 56.4907 3.89858C56.1606 3.56849 55.6795 3.36757 55.0798 3.36757H43.4213Z" fill="white"/>
<path d="M59.9658 10.273C60.3496 9.88916 60.923 9.64792 61.6776 9.64792C62.39 9.64792 62.9558 9.88634 63.3424 10.273C63.729 10.6596 63.9675 11.2253 63.9675 11.9377V28.0711C63.9675 28.7833 63.7292 29.3482 63.3392 29.7344C62.9489 30.1208 62.3737 30.3609 61.64 30.3609C60.9276 30.3609 60.3618 30.1224 59.9752 29.7358C59.5886 29.3492 59.3501 28.7835 59.3501 28.0711V11.9377C59.3501 11.2213 59.5817 10.6571 59.9658 10.273Z" fill="white"/>
<path fill-rule="evenodd" clip-rule="evenodd" d="M101.709 9.64792C95.8567 9.64792 91.5964 14.0014 91.5964 20.0232C91.5964 26.0351 95.9222 30.3609 101.934 30.3609C106.548 30.3609 110.307 27.8325 111.359 25.0286L111.363 25.0175L111.364 25.0155L111.367 25.0081C111.577 24.5274 111.526 24.0449 111.299 23.6888C111.075 23.3376 110.658 23.0736 110.058 23.0736C109.416 23.0736 108.679 23.4086 108.18 23.8844L108.174 23.8897L108.171 23.8965C107.069 25.8402 104.881 27.1351 102.536 27.1351C100.839 27.1351 99.3686 26.5542 98.2873 25.5087C97.2074 24.4645 96.5415 22.9822 96.403 21.2218L96.3676 20.7711H108.252C109.453 20.7711 110.395 20.3457 110.961 19.7233C111.521 19.108 111.74 18.2737 111.463 17.3617L111.458 17.3453L111.454 17.3285C110.481 12.821 106.74 9.64792 101.709 9.64792ZM96.4926 17.9052C96.882 14.6324 98.9428 12.3847 101.709 12.3847C104.51 12.3847 106.573 14.6303 106.962 17.9052H96.4926Z" fill="white"/>
<path d="M115.206 10.2744C115.596 9.88798 116.171 9.64792 116.905 9.64792C117.537 9.64792 118.043 9.82978 118.415 10.1292C118.788 10.4286 119.052 10.8656 119.166 11.4203L119.308 12.1131L119.846 11.6538C121.317 10.3986 123.178 9.64792 125.254 9.64792C126.075 9.64792 126.575 9.84896 126.87 10.1296C127.161 10.4069 127.318 10.8262 127.318 11.4112C127.318 11.9469 127.158 12.3432 126.879 12.6079C126.598 12.875 126.141 13.0617 125.442 13.0617C123.781 13.0617 122.234 13.5651 121.091 14.4242C119.947 15.2851 119.195 16.5186 119.195 17.9548V28.0711C119.195 28.7875 118.963 29.3517 118.579 29.7358C118.195 30.1196 117.622 30.3609 116.867 30.3609C116.155 30.3609 115.589 30.1224 115.203 29.7358C114.816 29.3492 114.577 28.7835 114.577 28.0711V11.9377C114.577 11.2254 114.816 10.6606 115.206 10.2744Z" fill="white"/>
</svg>
