<svg width="88" height="88" viewBox="0 0 88 88" fill="none" xmlns="http://www.w3.org/2000/svg">
<rect width="88" height="88" rx="24" fill="#F8F6F7"/>
<path d="M59.3763 29.5451C59.0979 46.018 45.9403 59.3425 29.541 59.905V59.1628C29.541 58.925 29.541 58.6873 29.541 58.4496C29.309 58.4496 29.0655 58.4612 28.8277 58.4612H28.4624C28.677 50.2508 32.0925 42.8348 37.5087 37.4192C42.9016 32.0268 50.2778 28.6174 58.4485 28.3796V28.8435C58.4485 29.0812 58.4485 29.319 58.4485 29.5567C58.6804 29.5509 58.924 29.5451 59.1617 29.5451H59.3763Z" fill="#99002F"/>
<path d="M71.9999 29.545V42.3825C71.9999 58.7452 58.7379 72.0001 42.3792 72.0001H29.5347V59.9049V59.1627C29.5347 58.925 29.5347 58.6873 29.5347 58.4495C45.3251 58.0726 58.0536 45.3454 58.4363 29.5566C58.6683 29.5508 58.9119 29.545 59.1496 29.545H71.9883H71.9999Z" fill="#8BC74F"/>
<path d="M58.4537 16V28.8432C58.4537 29.0809 58.4537 29.3187 58.4537 29.5564C42.6575 29.9333 29.929 42.6606 29.552 58.4493C29.3201 58.4493 29.0765 58.4609 28.8388 58.4609H16V45.6177C16 29.2607 29.2563 16 45.6208 16H58.4595H58.4537Z" fill="#E8184E"/>
</svg>
