<svg width="33" height="33" viewBox="0 0 33 33" fill="none" xmlns="http://www.w3.org/2000/svg">
<path d="M25.7088 8.67783C25.5499 18.0825 18.038 25.6897 8.67535 26.0108V25.5871C8.67535 25.4513 8.67535 25.3156 8.67535 25.1799C8.54293 25.1799 8.40388 25.1865 8.26815 25.1865H8.05957C8.18207 20.4991 10.1321 16.2651 13.2242 13.1733C16.3032 10.0947 20.5144 8.14818 25.1791 8.01245V8.27727C25.1791 8.413 25.1791 8.54873 25.1791 8.68445C25.3116 8.68114 25.4506 8.67783 25.5863 8.67783H25.7088Z" fill="#99002F"/>
<path d="M32.916 8.67786V16.007C32.916 25.3487 25.3445 32.9162 16.005 32.9162H8.67188V26.0108V25.5871C8.67188 25.4514 8.67188 25.3157 8.67188 25.1799C17.6869 24.9648 24.9538 17.6985 25.1723 8.68447C25.3048 8.68116 25.4438 8.67786 25.5796 8.67786H32.9094H32.916Z" fill="#8BC74F"/>
<path d="M25.1824 0.944824V8.27724C25.1824 8.41296 25.1824 8.54869 25.1824 8.68441C16.1641 8.89958 8.8971 16.1658 8.68191 25.1799C8.54948 25.1799 8.41043 25.1865 8.27469 25.1865H0.944824V17.8541C0.944824 8.51559 8.51306 0.944824 17.8558 0.944824H25.1857H25.1824Z" fill="#E8184E"/>
</svg>
